<svg width="478" height="548" viewBox="0 0 478 548" fill="none" xmlns="http://www.w3.org/2000/svg">
<g clip-path="url(#clip0)">
<path d="M82.9179 383.683C95.8004 383.683 109.334 381.418 120.711 377.482C123.925 394.327 127.17 411.592 129.044 427.865C97.5353 428.842 76.0989 431.106 60.1759 435.101C37.032 440.908 25.297 451.27 25.297 465.898C25.297 483.023 42.2052 502.853 70.5266 518.945C73.9283 520.878 78.2063 519.653 80.1071 516.307C82.0248 512.933 80.8435 508.644 77.4692 506.727C51.1372 491.765 39.3509 475.44 39.3509 465.898C39.3509 446.271 95.0639 442.693 136.971 441.709C150.544 448.054 165.216 451.234 179.89 451.234C194.563 451.234 209.235 448.054 222.808 441.709C264.715 442.693 320.428 446.271 320.428 465.898C320.428 489.478 272.245 513.605 249.214 521.352C247.196 511.838 241.987 503.29 234.229 497.11C231.991 495.328 229.603 493.798 227.111 492.499C238.799 487.729 250.096 483.465 264.213 483.465C268.094 483.465 271.24 480.319 271.24 476.438C271.24 472.557 268.094 469.412 264.213 469.412C246.364 469.412 232.647 475.037 219.382 480.478C211.405 483.749 203.869 486.84 195.534 488.718C195.501 488.725 195.469 488.733 195.437 488.74C191.367 489.715 185.464 490.492 179.89 490.492C164.81 490.492 152.951 485.628 140.395 480.478C127.131 475.037 113.415 469.412 95.5664 469.412C91.6854 469.412 88.5394 472.557 88.5394 476.438C88.5394 480.319 91.6854 483.465 95.5664 483.465C110.645 483.465 122.505 488.33 135.061 493.48C148.325 498.92 162.04 504.546 179.89 504.546C186.79 504.546 193.884 503.573 199 502.345C208.496 500.166 218.143 502.265 225.473 508.103C231.035 512.534 234.57 518.556 235.705 525.394C217.496 530.208 198.749 532.654 179.89 532.654C164.718 532.654 149.456 531.051 134.528 527.89C130.73 527.085 127.002 529.512 126.197 533.308C125.394 537.105 127.82 540.835 131.616 541.639C147.5 545.002 163.741 546.708 179.89 546.708C264.319 546.708 334.482 500.15 334.482 465.898C334.482 431.166 267.816 429.014 230.736 427.865C232.612 411.595 235.853 394.341 239.064 377.503C250.448 381.469 263.788 383.683 276.861 383.683C314.346 383.683 349.444 353.214 351.435 316.992C351.569 314.56 350.435 312.233 348.436 310.841C346.438 309.449 343.863 309.19 341.628 310.157C330.264 315.076 314.758 318.011 300.149 318.011C259.91 318.011 247.385 306.897 245.065 305.891C226.425 292.561 203.79 285.306 180.388 285.306H179.391C172.057 285.306 164.699 286.025 157.521 287.442C137.901 291.089 115.81 303.649 112.245 307.698C94.2509 321.315 73.5475 327.467 51.2967 327.467C36.6877 327.467 21.182 324.532 9.81809 319.613C7.58353 318.647 5.00745 318.905 3.0097 320.297C1.01194 321.689 -0.122911 324.017 0.0106003 326.448C2.00765 362.775 45.5992 383.683 82.9179 383.683ZM143.325 429.164C139.426 392.37 128.592 352.125 124.907 315.917C133.084 310.391 142.206 306.114 151.782 303.308V313.414C151.782 328.912 164.391 341.521 179.89 341.521C195.388 341.521 207.997 328.912 207.997 313.414V303.307C217.567 306.112 226.687 310.388 234.873 315.919C231.24 351.795 220.365 392.313 216.454 429.163C193.298 439.844 166.482 439.845 143.325 429.164ZM300.149 332.065C311.68 332.065 323.783 330.407 334.482 327.467C325.729 346.054 307.035 369.629 276.861 369.629C264.712 369.629 251.961 367.377 241.718 363.511C244.145 350.552 246.385 337.805 247.953 325.277C264.372 335.544 277.989 332.065 300.149 332.065ZM180.388 299.36C184.917 299.36 189.456 299.68 193.943 300.299V313.414C193.943 321.163 187.639 327.467 179.89 327.467C172.14 327.467 165.836 321.163 165.836 313.414V300.299C170.323 299.68 174.861 299.36 179.391 299.36H180.388ZM51.2967 341.521C73.4603 341.521 95.4139 335.542 111.832 325.274C113.424 337.943 115.705 350.92 118.06 363.504C107.816 367.376 95.0892 369.629 82.9179 369.629C52.7442 369.629 25.7172 355.51 16.9638 336.924C27.663 339.863 39.7655 341.521 51.2967 341.521Z" fill="black"/>
<path fill-rule="evenodd" clip-rule="evenodd" d="M123.923 371.931L124.832 376.695C128.042 393.52 131.318 410.934 133.212 427.385L133.734 431.918L129.174 432.059C97.7475 433.033 76.6735 435.287 61.1971 439.171L60.1759 435.101C75.3799 431.286 95.6105 429.05 124.837 428.006C126.219 427.956 127.621 427.91 129.044 427.865C128.884 426.478 128.715 425.084 128.536 423.684C126.79 410.003 124.176 395.719 121.504 381.645C121.24 380.255 120.975 378.867 120.711 377.482C119.397 377.936 118.054 378.369 116.687 378.778C106.216 381.911 94.3125 383.683 82.9179 383.683C45.5992 383.683 2.00765 362.775 0.0106003 326.448C-0.122911 324.017 1.01194 321.689 3.0097 320.297C5.00745 318.905 7.58353 318.647 9.81809 319.613C21.182 324.532 36.6877 327.467 51.2967 327.467C73.5475 327.467 94.2509 321.315 112.245 307.698C115.81 303.649 137.901 291.089 157.521 287.442C164.699 286.025 172.057 285.306 179.391 285.306H180.388C203.79 285.306 226.425 292.561 245.065 305.891C245.336 306.008 245.747 306.264 246.324 306.623C250.691 309.342 264.612 318.011 300.149 318.011C314.758 318.011 330.264 315.076 341.628 310.157C343.863 309.19 346.438 309.449 348.436 310.841C350.435 312.233 351.569 314.56 351.435 316.992C349.444 353.214 314.346 383.683 276.861 383.683C265.299 383.683 253.529 381.951 243.087 378.808C241.722 378.397 240.38 377.962 239.064 377.503C238.8 378.889 238.535 380.278 238.271 381.668C235.602 395.734 232.992 410.008 231.245 423.684C231.066 425.084 230.896 426.478 230.736 427.865C232.101 427.908 233.505 427.951 234.945 427.998C272.632 429.217 334.482 432.444 334.482 465.898C334.482 500.15 264.319 546.708 179.89 546.708C163.741 546.708 147.5 545.002 131.616 541.639C127.82 540.835 125.394 537.105 126.197 533.308C127.002 529.512 130.73 527.085 134.528 527.89C149.456 531.051 164.718 532.654 179.89 532.654C198.749 532.654 217.496 530.208 235.705 525.394C234.57 518.556 231.035 512.534 225.473 508.103C218.143 502.265 208.496 500.166 199 502.345C193.884 503.573 186.79 504.546 179.89 504.546C162.042 504.546 148.327 498.921 135.064 493.481L135.061 493.48L135.057 493.479C122.502 488.329 110.644 483.465 95.5664 483.465C91.6854 483.465 88.5394 480.319 88.5394 476.438C88.5394 472.557 91.6854 469.412 95.5664 469.412C113.414 469.412 127.129 475.037 140.392 480.477L140.395 480.478L140.398 480.479C152.953 485.629 164.812 490.492 179.89 490.492C185.464 490.492 191.367 489.715 195.437 488.74C195.469 488.733 195.501 488.725 195.534 488.718C203.869 486.84 211.405 483.749 219.382 480.478L220.974 484.359L220.827 484.42C212.948 487.651 205.136 490.855 196.456 492.811L196.44 492.815L196.439 492.815L196.431 492.817L196.425 492.818L196.414 492.821C196.413 492.821 196.413 492.821 196.412 492.821C192.022 493.872 185.792 494.688 179.89 494.688C163.984 494.688 151.469 489.555 139.052 484.462L138.803 484.359C125.513 478.909 112.496 473.607 95.5664 473.607C94.0026 473.607 92.7351 474.875 92.7351 476.438C92.7351 478.002 94.0026 479.27 95.5664 479.27C111.472 479.27 123.987 484.403 136.404 489.496L136.653 489.598C149.943 495.049 162.96 500.351 179.89 500.351C186.445 500.351 193.21 499.42 198.02 498.265L198.041 498.26L198.062 498.255C208.745 495.804 219.713 498.152 228.087 504.821C234.451 509.891 238.537 516.833 239.844 524.707L240.47 528.475L236.777 529.451C218.22 534.356 199.112 536.85 179.89 536.85C164.424 536.85 148.871 535.216 133.659 531.994C132.129 531.67 130.627 532.647 130.302 534.177C129.978 535.707 130.956 537.21 132.485 537.534C148.085 540.838 164.035 542.512 179.89 542.512C221.369 542.512 259.306 531.066 286.778 515.497C300.518 507.711 311.512 498.966 319.019 490.239C326.578 481.45 330.286 473.059 330.286 465.898C330.286 458.812 326.985 453.317 320.974 448.825C314.817 444.223 305.971 440.829 295.551 438.372C274.735 433.463 249.237 432.636 230.607 432.059L226.046 431.918L226.568 427.385C228.464 410.937 231.735 393.534 234.943 376.717L235.853 371.942L240.444 373.541C251.359 377.343 264.23 379.487 276.861 379.487C312.376 379.487 345.39 350.511 347.246 316.762C347.3 315.781 346.843 314.844 346.038 314.284C345.233 313.723 344.195 313.618 343.295 314.008C331.319 319.191 315.23 322.207 300.149 322.207C279.641 322.207 265.98 319.374 257.024 316.296C252.544 314.756 249.278 313.168 246.954 311.876C245.797 311.233 244.89 310.673 244.231 310.263C243.867 310.036 243.647 309.902 243.521 309.824C243.36 309.726 243.353 309.721 243.395 309.74L242.987 309.563L242.625 309.303C224.705 296.489 202.925 289.502 180.388 289.502H179.391C172.33 289.502 165.244 290.195 158.334 291.558L158.311 291.563L158.288 291.567C148.98 293.297 138.926 297.184 130.7 301.191C126.605 303.186 123.029 305.178 120.292 306.893C117.406 308.701 115.838 309.966 115.394 310.471L115.114 310.788L114.777 311.044C95.9782 325.27 74.3617 331.663 51.2967 331.663C36.2161 331.663 20.1276 328.647 8.15164 323.464C7.25119 323.075 6.2132 323.179 5.40836 323.74C4.60346 324.3 4.14617 325.238 4.19996 326.218C5.09911 342.574 15.3492 355.807 30.4237 365.119C45.5102 374.438 64.9597 379.487 82.9179 379.487C95.351 379.487 108.419 377.295 119.339 373.517L123.923 371.931ZM232.093 490.502C242.076 486.601 252.107 483.465 264.213 483.465C268.094 483.465 271.24 480.319 271.24 476.438C271.24 472.557 268.094 469.412 264.213 469.412C246.364 469.412 232.648 475.037 219.383 480.477L219.382 480.478L220.974 484.359C234.264 478.909 247.283 473.607 264.213 473.607C265.777 473.607 267.044 474.875 267.044 476.438C267.044 478.002 265.777 479.27 264.213 479.27C249.209 479.27 237.25 483.83 225.525 488.615L217.143 492.035L225.171 496.22C227.441 497.403 229.601 498.788 231.615 500.392C238.604 505.959 243.292 513.652 245.109 522.223L246.087 526.831L250.552 525.329C262.367 521.354 280.512 513.233 295.785 503.053C303.419 497.965 310.506 492.251 315.727 486.149C320.906 480.098 324.624 473.224 324.624 465.898C324.624 458.633 319.385 453.632 313.031 450.268C306.58 446.854 297.802 444.444 288.081 442.684C268.562 439.149 243.868 438.007 222.906 437.515L221.923 437.492L221.031 437.908C208.022 443.989 193.958 447.039 179.89 447.039C165.821 447.039 151.757 443.989 138.748 437.908L137.856 437.492L136.873 437.515C115.911 438.007 91.217 439.149 71.6982 442.684C61.9773 444.444 53.1994 446.854 46.7482 450.268C40.3936 453.632 35.1552 458.633 35.1552 465.898C35.1552 472.18 38.8909 479.613 45.3751 487.039C51.9873 494.612 61.9147 502.714 75.3965 510.375C76.7558 511.147 77.2319 512.875 76.4593 514.234C75.6908 515.587 73.9646 516.073 72.5995 515.297C58.7415 507.423 47.855 498.732 40.484 490.087C33.0735 481.395 29.4927 473.091 29.4927 465.898C29.4927 459.875 31.842 454.745 36.8345 450.337C41.9617 445.81 49.9621 441.99 61.1971 439.171L60.1759 435.101C37.032 440.908 25.297 451.27 25.297 465.898C25.297 483.023 42.2052 502.853 70.5266 518.945C73.9283 520.878 78.2063 519.653 80.1071 516.307C82.0248 512.933 80.8435 508.644 77.4692 506.727C51.1372 491.765 39.3509 475.44 39.3509 465.898C39.3509 446.271 95.0639 442.693 136.971 441.709C150.544 448.054 165.216 451.234 179.89 451.234C194.563 451.234 209.235 448.054 222.808 441.709C264.715 442.693 320.428 446.271 320.428 465.898C320.428 488.19 277.364 510.971 253.2 519.94C251.804 520.457 250.471 520.929 249.214 521.352C248.922 519.976 248.563 518.619 248.139 517.287C245.635 509.414 240.864 502.396 234.229 497.11C233.383 496.437 232.516 495.8 231.63 495.197C230.172 494.205 228.661 493.308 227.111 492.499C228.776 491.82 230.434 491.15 232.093 490.502ZM139.404 431.976L139.153 429.606C137.237 411.533 133.625 392.58 129.986 373.483L129.914 373.106C126.264 353.956 122.597 334.66 120.733 316.342L120.479 313.846L122.558 312.441C131.099 306.669 140.616 302.208 150.602 299.281L155.978 297.706V313.414C155.978 326.595 166.708 337.326 179.89 337.326C193.071 337.326 203.802 326.595 203.802 313.414V297.705L209.178 299.281C219.157 302.206 228.672 306.666 237.221 312.442L239.299 313.846L239.047 316.341C237.209 334.495 233.544 353.779 229.89 372.961L229.826 373.296C226.178 392.442 222.549 411.491 220.626 429.606L220.375 431.975L218.212 432.973C193.94 444.169 165.84 444.169 141.568 432.974L139.404 431.976ZM342.163 321.006L338.278 329.255C329.289 348.341 309.511 373.825 276.861 373.825C264.249 373.825 250.992 371.496 240.237 367.437L236.947 366.195L237.594 362.739C240.018 349.8 242.239 337.154 243.79 324.756L244.606 318.235L250.178 321.719C257.653 326.394 264.429 327.945 272.109 328.331C276.022 328.528 280.152 328.421 284.804 328.255C285.448 328.232 286.1 328.208 286.763 328.184C290.848 328.034 295.301 327.87 300.149 327.87C311.306 327.87 323.034 326.261 333.371 323.422L342.163 321.006ZM198.139 296.643V313.414C198.139 323.48 189.956 331.663 179.89 331.663C169.823 331.663 161.64 323.48 161.64 313.414V296.643L165.262 296.143C169.934 295.498 174.664 295.164 179.391 295.164H180.388C185.114 295.164 189.845 295.498 194.517 296.143L198.139 296.643ZM115.177 318.233L115.995 324.751C117.571 337.292 119.833 350.169 122.184 362.733L122.83 366.187L119.543 367.429C108.787 371.494 95.553 373.825 82.9179 373.825C67.1983 373.825 52.249 370.151 40.0211 363.994C27.8429 357.861 18.0604 349.099 13.168 338.711L9.28307 330.462L18.0753 332.878C28.4116 335.718 40.1402 337.326 51.2967 337.326C72.7708 337.326 93.9341 331.519 109.608 321.716L115.177 318.233ZM216.454 429.163C218.395 410.875 222.052 391.683 225.687 372.603C229.376 353.239 233.043 333.99 234.873 315.919C227.892 311.202 220.232 307.398 212.193 304.641C210.805 304.165 209.406 303.72 207.997 303.307V313.414C207.997 328.912 195.388 341.521 179.89 341.521C164.391 341.521 151.782 328.912 151.782 313.414V303.308C150.373 303.72 148.974 304.165 147.586 304.641C139.542 307.4 131.881 311.204 124.907 315.917C126.764 334.169 130.438 353.446 134.125 372.79C137.752 391.821 141.391 410.917 143.325 429.164C166.482 439.845 193.298 439.844 216.454 429.163ZM251.898 327.512C263.188 333.25 273.545 332.869 286.927 332.376C291.015 332.226 295.385 332.065 300.149 332.065C309.799 332.065 319.849 330.904 329.141 328.802C330.953 328.393 332.736 327.947 334.482 327.467C333.714 329.098 332.87 330.767 331.948 332.454C322.361 350.008 304.388 369.629 276.861 369.629C264.712 369.629 251.961 367.377 241.718 363.511C243.853 352.114 245.843 340.881 247.358 329.816C247.565 328.3 247.764 326.787 247.953 325.277C249.284 326.109 250.597 326.851 251.898 327.512ZM22.4765 338.297C31.7212 340.374 41.7065 341.521 51.2967 341.521C71.7347 341.521 91.9941 336.437 107.899 327.593C109.242 326.847 110.554 326.073 111.832 325.274C112.022 326.787 112.222 328.304 112.431 329.824C113.97 341.037 115.986 352.423 118.06 363.504C107.816 367.376 95.0892 369.629 82.9179 369.629C55.5599 369.629 30.7887 358.022 19.8794 342.002C18.7566 340.354 17.7806 338.658 16.9638 336.924C18.7647 337.418 20.6055 337.877 22.4765 338.297ZM193.943 300.299C189.456 299.68 184.917 299.36 180.388 299.36H179.391C174.861 299.36 170.323 299.68 165.836 300.299V313.414C165.836 321.163 172.14 327.467 179.89 327.467C187.639 327.467 193.943 321.163 193.943 313.414V300.299Z" fill="black"/>
<path d="M102.593 533.357C106.474 533.357 109.62 530.211 109.62 526.33C109.62 522.449 106.474 519.303 102.593 519.303C98.7124 519.303 95.5664 522.449 95.5664 526.33C95.5664 530.211 98.7124 533.357 102.593 533.357Z" fill="black"/>
<path d="M312.631 216.34C298.746 213.525 284.59 212.27 270.427 212.599C278.569 191.995 280.247 167.152 275.339 138.546C275.233 137.934 275.002 137.351 274.661 136.832C274.32 136.314 273.875 135.871 273.356 135.531C272.836 135.192 272.252 134.963 271.64 134.859C271.027 134.755 270.401 134.778 269.798 134.927C254.513 139.228 239.955 145.784 226.603 154.378C217.917 130.691 203.048 109.762 183.54 93.7636C182.665 93.0874 181.572 92.7555 180.468 92.8305C179.365 92.9055 178.327 93.3823 177.551 94.1707C157.489 114.576 144.077 135.542 137.509 156.594C123.28 146.921 107.586 139.602 91.0306 134.918C90.4279 134.769 89.801 134.746 89.1889 134.85C88.5769 134.954 87.9928 135.183 87.473 135.522C86.9532 135.862 86.5088 136.305 86.1676 136.823C85.8263 137.342 85.5955 137.925 85.4894 138.537C80.5814 167.143 82.2777 191.981 90.4019 212.59C76.2385 212.261 62.0827 213.516 48.198 216.331C47.5637 216.479 46.9691 216.762 46.4552 217.162C45.9413 217.562 45.5204 218.069 45.2215 218.647C44.9212 219.224 44.7488 219.859 44.716 220.508C44.6832 221.158 44.7908 221.807 45.0316 222.411C64.6905 271.635 103.009 282.975 134.144 282.975C149.875 282.876 165.492 280.286 180.414 275.304C195.337 280.294 210.955 282.889 226.689 282.994C257.82 282.994 296.142 271.649 315.801 222.429C316.042 221.825 316.15 221.176 316.117 220.526C316.084 219.877 315.912 219.242 315.611 218.665C315.313 218.085 314.892 217.576 314.377 217.174C313.862 216.773 313.266 216.488 312.631 216.34ZM260.398 213.088C243.834 214.107 227.666 218.575 212.929 226.206C212.138 226.399 211.415 226.806 210.839 227.382C201.683 232.669 193.697 239.762 187.367 248.231C187.565 239.877 186.792 231.528 185.064 223.352C190.493 200.386 204.447 180.831 226.68 165.189C239.163 156.578 252.825 149.818 267.242 145.118C271.105 171.725 268.771 194.542 260.398 213.088ZM181.088 103.475C189.054 110.528 210.224 131.372 218.837 159.779C201.654 171.867 188.315 188.646 180.414 208.112C173.086 189.907 160.927 174.048 145.249 162.244C150.718 142.617 162.709 122.877 181.088 103.475ZM93.6045 145.091C109.281 150.193 124.048 157.751 137.355 167.482C156.463 180.867 170.102 200.694 175.769 223.325C174.038 231.5 173.263 239.849 173.462 248.204C155.137 223.596 126.011 215.119 100.426 213.065C92.0575 194.542 89.7234 171.721 93.6045 145.105V145.091ZM127.915 273.956C94.0478 272.119 69.7432 255.355 55.5893 224.125C76.0942 220.633 150.044 212.328 174.43 267.768C159.398 272.498 143.661 274.596 127.915 273.969V273.956ZM232.914 273.956C217.167 274.577 201.432 272.479 186.399 267.754C210.78 212.333 284.725 220.638 305.262 224.125C291.085 255.355 266.781 272.119 232.914 273.969V273.956Z" fill="black"/>
<path fill-rule="evenodd" clip-rule="evenodd" d="M313.3 213.265L313.343 213.275C314.424 213.527 315.438 214.011 316.313 214.693C317.185 215.374 317.9 216.236 318.407 217.22C318.913 218.196 319.204 219.27 319.26 220.368C319.315 221.469 319.133 222.569 318.725 223.594L318.724 223.596C308.645 248.83 293.685 264.547 277.094 273.909C260.556 283.241 242.615 286.14 226.689 286.14H226.679L226.668 286.14C210.952 286.036 195.349 283.498 180.414 278.618C165.479 283.49 149.877 286.023 134.164 286.122L134.154 286.122H134.144C118.216 286.122 100.275 283.224 83.7377 273.893C67.1463 264.531 52.188 248.814 42.1092 223.578L42.1083 223.576C41.7002 222.551 41.5176 221.451 41.5732 220.35C41.6288 219.25 41.9205 218.175 42.4286 217.198C42.9364 216.216 43.6508 215.357 44.5228 214.679C45.3963 213.999 46.4071 213.517 47.4852 213.266L47.5288 213.256L47.5727 213.247C60.1829 210.69 73.013 209.4 85.8722 209.392C78.89 189.022 77.7458 165.062 82.388 138.005L82.3889 137.999C82.5688 136.962 82.9602 135.973 83.5388 135.093C84.1175 134.214 84.871 133.463 85.7524 132.888C86.6338 132.312 87.6242 131.924 88.6621 131.748C89.6999 131.571 90.7629 131.611 91.7849 131.863L91.8364 131.876L91.8873 131.89C107.437 136.29 122.24 142.968 135.818 151.703C142.957 131.407 156.23 111.368 175.307 91.9646L175.308 91.9635C176.624 90.6266 178.383 89.8182 180.255 89.691C182.126 89.5638 183.979 90.1267 185.463 91.2731L185.5 91.3012L185.535 91.3304C204.479 106.866 219.144 126.95 228.176 149.678C240.884 141.919 254.601 135.935 268.945 131.898L268.994 131.884L269.044 131.872C270.066 131.62 271.129 131.58 272.166 131.757C273.204 131.933 274.195 132.321 275.076 132.897C275.958 133.472 276.711 134.223 277.29 135.102C277.868 135.982 278.26 136.971 278.44 138.008L278.441 138.014C283.082 165.068 281.955 189.033 274.96 209.401C287.818 209.409 300.647 210.7 313.256 213.256L313.3 213.265ZM273.82 212.551C272.689 212.557 271.558 212.573 270.427 212.599C270.84 211.553 271.237 210.496 271.617 209.428C278.722 189.463 279.998 165.7 275.339 138.546C275.233 137.934 275.002 137.351 274.661 136.832C274.32 136.314 273.875 135.871 273.356 135.531C272.836 135.192 272.252 134.963 271.64 134.859C271.027 134.755 270.401 134.778 269.798 134.927C255.545 138.938 241.925 144.909 229.325 152.665C228.412 153.226 227.505 153.798 226.603 154.378C226.234 153.371 225.854 152.369 225.462 151.372C216.645 128.92 202.219 109.082 183.54 93.7636C182.665 93.0874 181.572 92.7555 180.468 92.8305C179.365 92.9055 178.327 93.3823 177.551 94.1707C158.477 113.571 145.414 133.479 138.529 153.486C138.173 154.522 137.833 155.558 137.509 156.594C136.606 155.981 135.697 155.376 134.782 154.781C121.285 146.003 106.536 139.305 91.0306 134.918C90.4279 134.769 89.801 134.746 89.1889 134.85C88.5769 134.954 87.9928 135.183 87.473 135.522C86.9532 135.862 86.5088 136.305 86.1676 136.823C85.8263 137.342 85.5955 137.925 85.4894 138.537C80.8306 165.691 82.1225 189.45 89.2144 209.419C89.5936 210.487 89.9895 211.544 90.4019 212.59C89.2709 212.564 88.1399 212.548 87.0091 212.542C73.9794 212.472 60.9739 213.741 48.198 216.331C47.5637 216.479 46.9691 216.762 46.4552 217.162C45.9413 217.562 45.5204 218.069 45.2215 218.647C44.9212 219.224 44.7488 219.859 44.716 220.508C44.6832 221.158 44.7908 221.807 45.0316 222.411C64.6905 271.635 103.009 282.975 134.144 282.975C149.875 282.876 165.492 280.286 180.414 275.304C195.337 280.294 210.955 282.889 226.689 282.994C257.82 282.994 296.142 271.649 315.801 222.429C316.042 221.825 316.15 221.176 316.117 220.526C316.084 219.877 315.912 219.242 315.611 218.665C315.313 218.085 314.892 217.576 314.377 217.174C313.862 216.773 313.266 216.488 312.631 216.34C299.855 213.75 286.85 212.481 273.82 212.551ZM137.355 167.482C124.91 158.381 111.187 151.181 96.6383 146.113C95.6559 145.771 94.6697 145.439 93.6799 145.116C93.6686 145.112 93.6574 145.109 93.6461 145.105C93.6323 145.1 93.6184 145.096 93.6045 145.091V145.105C93.4502 146.163 93.3058 147.215 93.1711 148.261C89.9184 173.528 92.3901 195.278 100.426 213.065C124.582 215.004 151.896 222.669 170.294 244.231C171.382 245.506 172.439 246.83 173.462 248.204C173.421 246.505 173.421 244.806 173.461 243.109C173.618 236.461 174.39 229.837 175.769 223.325C170.102 200.694 156.463 180.867 137.355 167.482ZM172.54 223.395C166.954 201.788 153.842 182.873 135.55 170.06L135.524 170.041L135.498 170.022C123.478 161.232 110.241 154.251 96.2114 149.298C93.2357 173.073 95.4675 193.421 102.557 210.09C125.688 212.217 151.857 219.667 170.446 239.67C170.741 234.205 171.44 228.765 172.54 223.395ZM128.837 270.854C142.753 271.325 156.652 269.618 170.032 265.802C157.978 241.693 135.537 231.076 112.987 226.942C92.2113 223.134 71.7289 224.923 60.2427 226.58C66.9125 239.92 75.5811 250.191 86.1453 257.472C97.678 265.42 111.641 269.922 128.085 270.813L128.837 270.854ZM56.9812 227.083C71.3106 256.414 95.133 272.178 127.915 273.956V273.969C142.605 274.554 157.285 272.767 171.394 268.684C172.409 268.391 173.421 268.085 174.43 267.768C173.999 266.788 173.553 265.829 173.092 264.889C148.671 215.114 82.4706 220.062 58.8141 223.61C57.6288 223.787 56.5504 223.962 55.5893 224.125C56.0429 225.126 56.5068 226.112 56.9812 227.083ZM236.06 273.752C235.1 273.832 234.133 273.9 233.157 273.956C233.076 273.96 232.995 273.965 232.914 273.969V273.956M229.767 274.044C216.13 274.268 202.537 272.457 189.435 268.67C188.42 268.376 187.408 268.071 186.399 267.754C186.83 266.775 187.276 265.815 187.737 264.875C212.155 215.115 278.356 220.066 302.036 223.611C303.221 223.788 304.3 223.962 305.262 224.125C304.808 225.126 304.343 226.112 303.868 227.083C289.981 255.467 267.224 271.146 236.06 273.752M300.605 226.581C289.106 224.926 268.617 223.137 247.839 226.944C225.287 231.076 202.849 241.689 190.797 265.787C204.433 269.673 218.607 271.371 232.789 270.811L233.489 270.784C249.61 269.791 263.325 265.303 274.686 257.474C285.253 250.192 293.926 239.92 300.605 226.581ZM229.767 274.044C230.697 274.028 231.628 274.003 232.558 273.969C232.676 273.965 232.795 273.96 232.914 273.956M260.398 213.088C268.437 195.282 270.909 173.541 267.675 148.288C267.541 147.238 267.396 146.181 267.242 145.118C266.228 145.449 265.217 145.79 264.21 146.141C250.908 150.779 238.284 157.184 226.68 165.189C204.447 180.831 190.493 200.386 185.064 223.352C186.441 229.868 187.211 236.494 187.367 243.145C187.407 244.839 187.407 246.535 187.367 248.231C188.381 246.874 189.438 245.552 190.535 244.268C196.286 237.535 203.15 231.822 210.839 227.382C211.415 226.806 212.138 226.399 212.929 226.206C227.666 218.575 243.834 214.107 260.398 213.088ZM211.774 223.261C226.249 215.814 242.061 211.335 258.28 210.081C265.362 193.401 267.59 173.072 264.635 149.327C251.827 153.853 239.669 160.053 228.478 167.772C207.005 182.883 193.625 201.587 188.289 223.402C189.389 228.781 190.089 234.232 190.383 239.708C195.799 233.877 202.052 228.864 208.952 224.839C209.768 224.117 210.731 223.578 211.774 223.261ZM181.268 107.893C164.966 125.609 154.19 143.454 148.87 161.058C162.278 171.572 173.067 185.018 180.424 200.336C188.402 183.805 200.316 169.452 215.148 158.555C207.17 134.399 190.009 116.052 181.268 107.893ZM218.837 159.779C210.224 131.372 189.054 110.528 181.088 103.475C162.709 122.877 150.718 142.617 145.249 162.244C159.76 173.169 171.256 187.568 178.698 204.086C179.296 205.415 179.869 206.757 180.414 208.112C180.964 206.758 181.54 205.417 182.141 204.09C190.189 186.335 202.849 171.026 218.837 159.779Z" fill="black"/>
<path d="M98.9919 161.937C99.2161 173.99 102.598 185.773 108.799 196.111L116.326 191.09C111.139 182.23 108.287 172.197 108.039 161.932L98.9919 161.937Z" fill="black"/>
<path d="M261.837 161.937H252.79C252.559 172.202 249.706 182.238 244.503 191.09L252.03 196.111C258.231 185.773 261.612 173.99 261.837 161.937Z" fill="black"/>
</g>
<path d="M229.812 115.129C229.039 120.096 232.438 124.75 237.406 125.524C242.374 126.298 247.028 122.898 247.801 117.93C256.163 64.2436 306.377 27.5572 360.07 35.9195C413.757 44.2809 450.443 94.4952 442.081 148.188C433.719 201.875 383.505 238.561 329.812 230.199C324.844 229.425 320.191 232.825 319.417 237.793C318.643 242.76 322.043 247.414 327.01 248.188C390.638 258.098 450.159 214.627 460.07 150.99C469.979 87.362 426.509 27.8418 362.872 17.9307C299.244 8.02103 239.724 51.4918 229.812 115.129Z" fill="black"/>
<path d="M299.427 133.06C299.427 138.087 303.502 142.163 308.53 142.163H335.838V169.471C335.838 174.499 339.914 178.574 344.941 178.574C349.969 178.574 354.044 174.499 354.044 169.471V142.163H381.352C386.38 142.163 390.455 138.087 390.455 133.06C390.455 128.032 386.38 123.957 381.352 123.957H354.044V96.6485C354.044 91.621 349.969 87.5457 344.941 87.5457C339.914 87.5457 335.838 91.621 335.838 96.6485V123.957H308.53C303.502 123.957 299.427 128.032 299.427 133.06Z" fill="black"/>
<defs>
<clipPath id="clip0">
<rect width="352.437" height="458.377" fill="white" transform="translate(0 89.1582)"/>
</clipPath>
</defs>
</svg>
