<svg width="535" height="535" viewBox="0 0 535 535" fill="none" xmlns="http://www.w3.org/2000/svg">
<g clip-path="url(#clip0)">
<path d="M254.424 338.905C279.971 338.905 305.188 332.204 327.906 319.088C362.012 299.397 386.41 267.602 396.603 229.561C406.796 191.52 401.565 151.786 381.873 117.679C362.182 83.5711 330.387 59.1745 292.345 48.9805C254.304 38.7876 214.57 44.0179 180.462 63.7103C110.055 104.361 85.8459 194.713 126.496 265.12C146.188 299.228 177.983 323.624 216.025 333.817C228.726 337.221 241.617 338.905 254.424 338.905V338.905ZM140.082 257.276C122.485 226.798 117.811 191.292 126.92 157.299C136.028 123.305 157.83 94.8936 188.307 77.296C208.61 65.574 231.139 59.5876 253.97 59.5876C265.413 59.5876 276.936 61.0926 288.286 64.1339C322.279 73.2423 350.691 95.0442 368.289 125.521C385.885 156 390.559 191.505 381.451 225.499C372.342 259.492 350.54 287.904 320.063 305.501C289.585 323.098 254.078 327.774 220.086 318.663C186.09 309.555 157.678 287.756 140.082 257.276Z" fill="black"/>
<path d="M466.164 470.552C466.126 470.488 466.089 470.425 466.05 470.361L457.049 455.739C454.779 452.049 449.946 450.899 446.258 453.171C442.569 455.442 441.42 460.274 443.691 463.962L452.629 478.484C460.021 491.405 455.604 508.011 442.744 515.548C436.421 519.257 429.037 520.26 421.95 518.377C414.867 516.494 408.956 511.956 405.307 505.598C405.269 505.532 405.23 505.468 405.192 505.403L354.073 421.99L401.134 394.824C401.163 394.874 401.192 394.925 401.223 394.973L425.047 433.676C427.317 437.364 432.15 438.515 435.838 436.243C439.527 433.973 440.676 429.141 438.406 425.452L414.639 386.841C410.211 379.197 404.637 372.325 398.071 366.413L372.392 342.246C405.066 316.824 428.495 281.654 439.396 240.969C452.625 191.597 445.837 140.028 420.279 95.7618C394.723 51.4959 353.457 19.8316 304.085 6.60154C254.711 -6.6254 203.142 0.162203 158.876 25.7198C114.609 51.2773 82.9447 92.5426 69.7168 141.915C56.4867 191.287 63.2753 242.856 88.8329 287.123C105.945 316.764 130.66 341.278 160.305 358.016C164.077 360.142 168.862 358.814 170.991 355.042C173.122 351.269 171.79 346.485 168.018 344.354C140.814 328.995 118.129 306.492 102.419 279.278C78.9569 238.641 72.7236 191.299 84.8691 145.974C97.0146 100.65 126.082 62.7661 166.72 39.3044C207.357 15.8417 254.698 9.60837 300.023 21.7549C345.349 33.8994 383.232 62.9679 406.693 103.606C430.155 144.243 436.388 191.585 424.243 236.909C412.098 282.235 383.03 320.118 342.392 343.579C299.511 368.336 247.865 373.833 200.699 358.657C196.574 357.327 192.156 359.598 190.829 363.722C189.502 367.847 191.769 372.265 195.894 373.592C214.993 379.737 234.767 382.77 254.474 382.77C277.735 382.77 300.898 378.53 322.754 370.209L330.991 405.137C332.836 413.816 336.022 422.11 340.458 429.794C340.493 429.854 340.527 429.913 340.564 429.971L391.759 513.509C397.511 523.471 406.797 530.581 417.921 533.538C421.599 534.516 425.326 534.999 429.031 534.999C436.567 534.998 444 532.996 450.685 529.078C470.978 517.183 477.922 490.928 466.164 470.552V470.552ZM391.721 382.145L347.793 407.503C346.812 404.555 338.547 368.523 337.546 364.576L359.663 351.809C359.839 351.972 390.38 380.716 391.721 382.145Z" fill="black"/>
<g clip-path="url(#clip1)">
<path d="M207.887 215.599C214.305 215.599 221.047 214.472 226.715 212.513C228.317 220.896 229.933 229.488 230.867 237.586C215.169 238.072 204.49 239.199 196.557 241.187C185.027 244.077 179.181 249.233 179.181 256.513C179.181 265.035 187.604 274.903 201.714 282.911C203.409 283.873 205.54 283.263 206.487 281.598C207.442 279.919 206.854 277.785 205.173 276.831C192.054 269.385 186.182 261.261 186.182 256.513C186.182 246.746 213.938 244.965 234.816 244.476C241.578 247.633 248.888 249.216 256.198 249.216C263.508 249.216 270.818 247.633 277.58 244.476C298.458 244.965 326.214 246.746 326.214 256.513C326.214 268.247 302.209 280.253 290.735 284.109C289.73 279.374 287.134 275.12 283.269 272.045C282.155 271.158 280.965 270.397 279.723 269.751C285.546 267.377 291.174 265.255 298.207 265.255C300.141 265.255 301.708 263.689 301.708 261.758C301.708 259.827 300.141 258.261 298.207 258.261C289.315 258.261 282.481 261.061 275.873 263.768C271.899 265.396 268.144 266.934 263.992 267.869C263.976 267.872 263.959 267.876 263.943 267.88C261.916 268.365 258.975 268.752 256.198 268.752C248.686 268.752 242.777 266.331 236.522 263.768C229.914 261.061 223.081 258.261 214.189 258.261C212.255 258.261 210.688 259.827 210.688 261.758C210.688 263.689 212.255 265.255 214.189 265.255C221.701 265.255 227.609 267.676 233.865 270.239C240.473 272.946 247.306 275.746 256.198 275.746C259.636 275.746 263.17 275.261 265.719 274.65C270.449 273.566 275.256 274.611 278.907 277.516C281.678 279.721 283.439 282.718 284.005 286.121C274.933 288.516 265.594 289.733 256.198 289.733C248.639 289.733 241.036 288.936 233.599 287.362C231.707 286.962 229.85 288.17 229.449 290.059C229.048 291.948 230.257 293.804 232.148 294.204C240.061 295.878 248.153 296.727 256.198 296.727C298.26 296.727 333.215 273.558 333.215 256.513C333.215 239.229 300.002 238.158 281.53 237.586C282.464 229.489 284.078 220.903 285.678 212.524C291.35 214.497 297.996 215.599 304.509 215.599C323.183 215.599 340.669 200.437 341.661 182.411C341.728 181.201 341.163 180.043 340.167 179.35C339.172 178.658 337.889 178.529 336.775 179.01C331.114 181.458 323.389 182.919 316.111 182.919C296.064 182.919 289.824 177.388 288.668 176.887C279.382 170.254 268.105 166.643 256.446 166.643H255.949C252.296 166.643 248.63 167.001 245.054 167.706C235.279 169.521 224.274 175.771 222.498 177.786C213.533 184.563 203.219 187.624 192.134 187.624C184.855 187.624 177.131 186.163 171.469 183.716C170.356 183.235 169.073 183.363 168.077 184.056C167.082 184.749 166.517 185.907 166.583 187.117C167.578 205.195 189.295 215.599 207.887 215.599ZM237.982 238.233C236.039 219.922 230.642 199.895 228.806 181.877C232.88 179.127 237.424 176.998 242.195 175.601V180.631C242.195 188.343 248.477 194.618 256.198 194.618C263.919 194.618 270.201 188.343 270.201 180.631V175.601C274.968 176.997 279.512 179.125 283.59 181.877C281.781 199.731 276.363 219.894 274.414 238.232C262.878 243.547 249.518 243.548 237.982 238.233ZM316.111 189.912C321.855 189.912 327.885 189.087 333.215 187.624C328.854 196.874 319.541 208.606 304.509 208.606C298.456 208.606 292.104 207.485 287.001 205.561C288.21 199.112 289.326 192.769 290.107 186.534C298.286 191.644 305.071 189.912 316.111 189.912ZM256.446 173.637C258.703 173.637 260.964 173.796 263.199 174.104V180.631C263.199 184.487 260.059 187.624 256.198 187.624C252.337 187.624 249.196 184.487 249.196 180.631V174.104C251.432 173.796 253.693 173.637 255.949 173.637H256.446ZM192.134 194.618C203.175 194.618 214.113 191.643 222.292 186.533C223.085 192.837 224.221 199.295 225.395 205.558C220.291 207.484 213.951 208.606 207.887 208.606C192.855 208.606 179.39 201.579 175.029 192.33C180.359 193.793 186.389 194.618 192.134 194.618Z" fill="black"/>
<path fill-rule="evenodd" clip-rule="evenodd" d="M228.316 209.751L228.769 212.122C230.368 220.495 232 229.16 232.943 237.347L233.204 239.603L230.932 239.673C215.275 240.158 204.776 241.28 197.066 243.212L196.557 241.187C204.132 239.289 214.211 238.176 228.771 237.656C229.459 237.632 230.158 237.608 230.867 237.586C230.787 236.896 230.703 236.202 230.614 235.505C229.744 228.697 228.442 221.589 227.11 214.585C226.979 213.893 226.847 213.203 226.715 212.513C226.061 212.74 225.392 212.955 224.711 213.158C219.494 214.718 213.564 215.599 207.887 215.599C189.295 215.599 167.578 205.195 166.583 187.117C166.517 185.907 167.082 184.749 168.077 184.056C169.073 183.363 170.356 183.235 171.469 183.716C177.131 186.163 184.855 187.624 192.134 187.624C203.219 187.624 213.533 184.563 222.498 177.786C224.274 175.771 235.279 169.521 245.054 167.706C248.63 167.001 252.296 166.643 255.949 166.643H256.446C268.105 166.643 279.382 170.254 288.668 176.887C288.803 176.945 289.008 177.073 289.295 177.252C291.471 178.605 298.406 182.919 316.111 182.919C323.389 182.919 331.114 181.458 336.775 179.01C337.889 178.529 339.172 178.658 340.167 179.35C341.163 180.043 341.728 181.201 341.661 182.411C340.669 200.437 323.183 215.599 304.509 215.599C298.749 215.599 292.885 214.737 287.682 213.173C287.002 212.969 286.334 212.752 285.678 212.524C285.547 213.214 285.415 213.905 285.283 214.597C283.954 221.596 282.653 228.7 281.783 235.505C281.694 236.202 281.609 236.896 281.53 237.586C282.209 237.607 282.909 237.629 283.626 237.652C302.402 238.259 333.215 239.865 333.215 256.513C333.215 273.558 298.26 296.727 256.198 296.727C248.153 296.727 240.061 295.878 232.148 294.204C230.257 293.804 229.048 291.948 229.449 290.059C229.85 288.17 231.707 286.962 233.599 287.362C241.036 288.936 248.639 289.733 256.198 289.733C265.594 289.733 274.933 288.516 284.005 286.121C283.439 282.718 281.678 279.721 278.907 277.516C275.256 274.611 270.449 273.566 265.719 274.65C263.17 275.261 259.636 275.746 256.198 275.746C247.306 275.746 240.474 272.946 233.866 270.239L233.865 270.239L233.863 270.238C227.608 267.675 221.7 265.255 214.189 265.255C212.255 265.255 210.688 263.689 210.688 261.758C210.688 259.827 212.255 258.261 214.189 258.261C223.08 258.261 229.913 261.06 236.521 263.768L236.522 263.768L236.524 263.769C242.779 266.331 248.686 268.752 256.198 268.752C258.975 268.752 261.916 268.365 263.943 267.88C263.959 267.876 263.976 267.872 263.992 267.869C268.144 266.934 271.899 265.396 275.873 263.768L276.666 265.7L276.593 265.73C272.667 267.338 268.775 268.932 264.451 269.906L264.443 269.908L264.443 269.908L264.439 269.909L264.436 269.909L264.43 269.911C264.43 269.911 264.43 269.911 264.43 269.911C262.242 270.434 259.138 270.84 256.198 270.84C248.274 270.84 242.039 268.285 235.853 265.751L235.729 265.7C229.108 262.987 222.623 260.349 214.189 260.349C213.409 260.349 212.778 260.98 212.778 261.758C212.778 262.536 213.409 263.167 214.189 263.167C222.113 263.167 228.348 265.722 234.534 268.256L234.658 268.307C241.279 271.019 247.764 273.658 256.198 273.658C259.464 273.658 262.834 273.195 265.231 272.62L265.241 272.617L265.251 272.615C270.574 271.395 276.038 272.563 280.209 275.883C283.38 278.406 285.416 281.86 286.067 285.778L286.379 287.653L284.539 288.139C275.294 290.58 265.775 291.821 256.198 291.821C248.493 291.821 240.745 291.008 233.166 289.405C232.404 289.244 231.656 289.73 231.494 290.491C231.332 291.253 231.82 292.001 232.581 292.162C240.353 293.806 248.299 294.639 256.198 294.639C276.863 294.639 295.763 288.943 309.449 281.195C316.294 277.321 321.772 272.969 325.511 268.626C329.277 264.252 331.125 260.077 331.125 256.513C331.125 252.987 329.48 250.252 326.486 248.017C323.418 245.727 319.011 244.037 313.82 242.815C303.449 240.372 290.746 239.961 281.465 239.673L279.193 239.603L279.453 237.347C280.398 229.162 282.027 220.502 283.625 212.133L284.079 209.757L286.366 210.552C291.804 212.444 298.216 213.511 304.509 213.511C322.202 213.511 338.649 199.091 339.574 182.297C339.601 181.809 339.373 181.342 338.972 181.064C338.571 180.784 338.054 180.732 337.605 180.926C331.639 183.505 323.624 185.007 316.111 185.007C305.893 185.007 299.088 183.597 294.626 182.065C292.394 181.299 290.767 180.508 289.609 179.866C289.033 179.546 288.581 179.267 288.252 179.062C288.071 178.95 287.962 178.883 287.899 178.844C287.819 178.795 287.815 178.793 287.836 178.802L287.633 178.714L287.452 178.585C278.525 172.208 267.674 168.731 256.446 168.731H255.949C252.432 168.731 248.902 169.076 245.459 169.755L245.448 169.757L245.436 169.759C240.799 170.62 235.79 172.554 231.692 174.548C229.652 175.541 227.87 176.532 226.507 177.386C225.069 178.286 224.288 178.915 224.066 179.166L223.927 179.324L223.759 179.451C214.394 186.531 203.624 189.712 192.134 189.712C184.621 189.712 176.605 188.211 170.639 185.632C170.19 185.438 169.673 185.49 169.272 185.769C168.871 186.048 168.643 186.515 168.67 187.002C169.118 195.142 174.225 201.727 181.735 206.361C189.251 210.999 198.94 213.511 207.887 213.511C214.081 213.511 220.592 212.42 226.032 210.54L228.316 209.751ZM282.205 268.757C287.179 266.815 292.176 265.255 298.207 265.255C300.141 265.255 301.708 263.689 301.708 261.758C301.708 259.827 300.141 258.261 298.207 258.261C289.315 258.261 282.482 261.061 275.873 263.768L275.873 263.768L276.666 265.7C283.287 262.987 289.773 260.349 298.207 260.349C298.986 260.349 299.618 260.98 299.618 261.758C299.618 262.536 298.986 263.167 298.207 263.167C290.732 263.167 284.775 265.436 278.933 267.817L274.758 269.52L278.757 271.602C279.888 272.191 280.964 272.88 281.967 273.678C285.449 276.449 287.785 280.277 288.69 284.542L289.177 286.836L291.401 286.088C297.288 284.11 306.328 280.068 313.936 275.003C317.74 272.471 321.27 269.627 323.872 266.59C326.452 263.579 328.304 260.158 328.304 256.513C328.304 252.898 325.694 250.409 322.528 248.735C319.314 247.036 314.941 245.837 310.098 244.961C300.374 243.202 288.071 242.633 277.629 242.388L277.139 242.377L276.694 242.584C270.213 245.61 263.207 247.128 256.198 247.128C249.189 247.128 242.182 245.61 235.701 242.584L235.257 242.377L234.767 242.388C224.324 242.633 212.022 243.202 202.298 244.961C197.455 245.837 193.082 247.036 189.868 248.735C186.702 250.409 184.092 252.898 184.092 256.513C184.092 259.639 185.953 263.338 189.184 267.034C192.478 270.802 197.423 274.834 204.14 278.646C204.817 279.03 205.054 279.89 204.67 280.567C204.287 281.24 203.427 281.482 202.747 281.096C195.843 277.177 190.419 272.852 186.747 268.55C183.055 264.225 181.271 260.092 181.271 256.513C181.271 253.515 182.441 250.963 184.929 248.769C187.483 246.516 191.469 244.615 197.066 243.212L196.557 241.187C185.027 244.077 179.181 249.233 179.181 256.513C179.181 265.035 187.604 274.903 201.714 282.911C203.409 283.873 205.54 283.263 206.487 281.598C207.442 279.919 206.854 277.785 205.173 276.831C192.054 269.385 186.182 261.261 186.182 256.513C186.182 246.746 213.938 244.965 234.816 244.476C241.578 247.633 248.888 249.216 256.198 249.216C263.508 249.216 270.818 247.633 277.58 244.476C298.458 244.965 326.214 246.746 326.214 256.513C326.214 267.606 304.759 278.943 292.721 283.406C292.025 283.664 291.361 283.899 290.735 284.109C290.589 283.424 290.411 282.749 290.2 282.086C288.952 278.168 286.575 274.675 283.269 272.045C282.848 271.71 282.416 271.393 281.975 271.093C281.248 270.6 280.496 270.153 279.723 269.751C280.553 269.412 281.379 269.079 282.205 268.757ZM236.028 239.632L235.903 238.453C234.949 229.458 233.149 220.027 231.336 210.523L231.3 210.336C229.482 200.806 227.655 191.203 226.727 182.088L226.6 180.846L227.636 180.147C231.89 177.274 236.632 175.054 241.607 173.598L244.285 172.814V180.631C244.285 187.19 249.631 192.53 256.198 192.53C262.765 192.53 268.111 187.19 268.111 180.631V172.813L270.789 173.597C275.761 175.053 280.501 177.273 284.76 180.147L285.796 180.846L285.67 182.088C284.754 191.122 282.928 200.718 281.108 210.264L281.076 210.43C279.259 219.958 277.451 229.438 276.493 238.453L276.368 239.632L275.29 240.128C263.198 245.699 249.199 245.7 237.106 240.129L236.028 239.632ZM337.042 184.409L335.106 188.514C330.628 198.012 320.775 210.694 304.509 210.694C298.226 210.694 291.621 209.534 286.263 207.515L284.624 206.897L284.946 205.177C286.153 198.738 287.26 192.445 288.033 186.275L288.439 183.03L291.215 184.764C294.939 187.09 298.315 187.862 302.141 188.054C304.091 188.152 306.148 188.099 308.466 188.016C308.786 188.005 309.112 187.993 309.442 187.981C311.477 187.906 313.695 187.824 316.111 187.824C321.669 187.824 327.512 187.024 332.661 185.611L337.042 184.409ZM265.29 172.285V180.631C265.29 185.64 261.213 189.712 256.198 189.712C251.183 189.712 247.106 185.64 247.106 180.631V172.285L248.91 172.036C251.238 171.715 253.595 171.549 255.949 171.549H256.446C258.801 171.549 261.157 171.715 263.485 172.036L265.29 172.285ZM223.958 183.029L224.366 186.272C225.151 192.513 226.278 198.921 227.449 205.174L227.771 206.893L226.133 207.511C220.775 209.534 214.182 210.694 207.887 210.694C200.056 210.694 192.608 208.866 186.516 205.801C180.449 202.749 175.575 198.389 173.138 193.22L171.203 189.115L175.583 190.317C180.732 191.73 186.576 192.53 192.134 192.53C202.832 192.53 213.375 189.641 221.184 184.762L223.958 183.029ZM274.414 238.232C275.381 229.131 277.203 219.581 279.014 210.086C280.852 200.449 282.679 190.87 283.59 181.877C280.112 179.53 276.296 177.637 272.291 176.265C271.6 176.028 270.903 175.807 270.201 175.601V180.631C270.201 188.343 263.919 194.618 256.198 194.618C248.477 194.618 242.195 188.343 242.195 180.631V175.601C241.493 175.807 240.796 176.028 240.105 176.265C236.097 177.638 232.28 179.531 228.806 181.877C229.731 190.959 231.562 200.552 233.398 210.179C235.205 219.649 237.018 229.152 237.982 238.233C249.518 243.548 262.878 243.547 274.414 238.232ZM292.072 187.647C297.697 190.502 302.857 190.312 309.524 190.067C311.56 189.992 313.737 189.912 316.111 189.912C320.918 189.912 325.925 189.334 330.554 188.289C331.457 188.085 332.345 187.863 333.215 187.624C332.833 188.436 332.412 189.266 331.953 190.106C327.176 198.841 318.222 208.606 304.509 208.606C298.456 208.606 292.104 207.485 287.001 205.561C288.064 199.89 289.055 194.299 289.81 188.793C289.914 188.039 290.013 187.285 290.107 186.534C290.77 186.948 291.424 187.318 292.072 187.647ZM177.776 193.014C182.381 194.047 187.356 194.618 192.134 194.618C202.316 194.618 212.409 192.088 220.333 187.687C221.002 187.315 221.655 186.93 222.292 186.533C222.387 187.285 222.486 188.041 222.59 188.797C223.357 194.377 224.362 200.043 225.395 205.558C220.291 207.484 213.951 208.606 207.887 208.606C194.258 208.606 181.917 202.829 176.482 194.857C175.922 194.037 175.436 193.193 175.029 192.33C175.926 192.576 176.843 192.804 177.776 193.014ZM263.199 174.104C260.964 173.796 258.703 173.637 256.446 173.637H255.949C253.693 173.637 251.432 173.796 249.196 174.104V180.631C249.196 184.487 252.337 187.624 256.198 187.624C260.059 187.624 263.199 184.487 263.199 180.631V174.104Z" fill="black"/>
<path d="M217.689 290.083C219.623 290.083 221.19 288.517 221.19 286.586C221.19 284.655 219.623 283.089 217.689 283.089C215.756 283.089 214.189 284.655 214.189 286.586C214.189 288.517 215.756 290.083 217.689 290.083Z" fill="black"/>
<path d="M322.329 132.323C315.411 130.922 308.359 130.298 301.303 130.461C305.359 120.208 306.195 107.845 303.75 93.6094C303.697 93.305 303.582 93.0148 303.412 92.7567C303.242 92.4986 303.021 92.2782 302.762 92.1093C302.503 91.9404 302.212 91.8265 301.907 91.7748C301.602 91.723 301.29 91.7345 300.99 91.8086C293.375 93.9491 286.122 97.2114 279.47 101.488C275.143 89.7006 267.735 79.2853 258.016 71.324C257.58 70.9876 257.036 70.8224 256.486 70.8597C255.936 70.897 255.419 71.1343 255.033 71.5266C245.038 81.6811 238.356 92.1147 235.084 102.591C227.995 97.7774 220.177 94.1351 211.929 91.8041C211.628 91.73 211.316 91.7185 211.011 91.7703C210.706 91.822 210.415 91.9359 210.156 92.1048C209.897 92.2737 209.676 92.4941 209.506 92.7522C209.336 93.0103 209.221 93.3005 209.168 93.6049C206.723 107.841 207.568 120.201 211.615 130.457C204.559 130.293 197.507 130.918 190.59 132.319C190.274 132.392 189.977 132.533 189.721 132.732C189.465 132.931 189.256 133.183 189.107 133.471C188.957 133.758 188.871 134.074 188.855 134.397C188.839 134.72 188.892 135.043 189.012 135.344C198.806 159.84 217.896 165.483 233.407 165.483C241.245 165.434 249.025 164.145 256.459 161.665C263.893 164.149 271.674 165.44 279.513 165.492C295.022 165.492 314.114 159.847 323.908 135.353C324.028 135.052 324.082 134.729 324.066 134.406C324.049 134.083 323.963 133.767 323.814 133.48C323.665 133.191 323.455 132.938 323.199 132.738C322.942 132.538 322.645 132.397 322.329 132.323ZM296.307 130.705C288.055 131.211 279.999 133.435 272.658 137.233C272.264 137.329 271.903 137.531 271.617 137.818C267.055 140.449 263.076 143.979 259.923 148.193C260.021 144.036 259.636 139.881 258.776 135.812C261.48 124.384 268.432 114.652 279.509 106.868C285.727 102.583 292.534 99.219 299.716 96.8802C301.641 110.121 300.478 121.475 296.307 130.705ZM256.795 76.157C260.763 79.6664 271.31 90.0393 275.601 104.176C267.041 110.191 260.395 118.541 256.459 128.228C252.808 119.169 246.751 111.277 238.94 105.403C241.664 95.6354 247.639 85.8118 256.795 76.157ZM213.211 96.8667C221.021 99.4055 228.378 103.167 235.007 108.009C244.527 114.67 251.322 124.537 254.145 135.799C253.282 139.867 252.897 144.022 252.995 148.179C243.866 135.934 229.356 131.715 216.609 130.693C212.44 121.475 211.277 110.119 213.211 96.8735V96.8667ZM230.304 160.995C213.432 160.081 201.323 151.738 194.272 136.197C204.487 134.459 241.329 130.326 253.478 157.915C245.989 160.269 238.149 161.313 230.304 161.001V160.995ZM282.614 160.995C274.769 161.304 266.93 160.26 259.441 157.908C271.587 130.329 308.426 134.462 318.657 136.197C311.595 151.738 299.486 160.081 282.614 161.001V160.995Z" fill="black"/>
<path fill-rule="evenodd" clip-rule="evenodd" d="M322.662 130.793L322.684 130.798C323.222 130.923 323.727 131.164 324.163 131.503C324.598 131.842 324.954 132.271 325.206 132.761C325.459 133.247 325.604 133.781 325.631 134.327C325.659 134.875 325.568 135.423 325.365 135.933L325.364 135.934C320.343 148.491 312.89 156.312 304.624 160.972C296.385 165.615 287.447 167.058 279.513 167.058H279.508L279.503 167.058C271.673 167.006 263.9 165.743 256.459 163.315C249.018 165.74 241.246 167 233.417 167.049L233.412 167.049H233.407C225.472 167.049 216.534 165.607 208.295 160.963C200.03 156.304 192.577 148.483 187.556 135.925L187.556 135.924C187.353 135.414 187.262 134.866 187.289 134.318C187.317 133.771 187.462 133.236 187.715 132.75C187.968 132.261 188.324 131.834 188.759 131.496C189.194 131.158 189.698 130.918 190.235 130.793L190.256 130.788L190.278 130.784C196.56 129.511 202.952 128.869 209.359 128.865C205.88 118.729 205.31 106.805 207.623 93.3401L207.623 93.3374C207.713 92.8212 207.908 92.329 208.196 91.8914C208.485 91.4538 208.86 91.0801 209.299 90.7937C209.738 90.5072 210.232 90.3141 210.749 90.2264C211.266 90.1387 211.795 90.1582 212.304 90.2838L212.33 90.2901L212.355 90.2973C220.102 92.4866 227.477 95.8103 234.241 100.157C237.798 90.0569 244.411 80.0847 253.915 70.4288L253.915 70.4282C254.571 69.763 255.447 69.3607 256.38 69.2974C257.312 69.2341 258.235 69.5142 258.975 70.0847L258.993 70.0987L259.01 70.1132C268.448 77.8441 275.754 87.8388 280.254 99.1492C286.585 95.2878 293.419 92.31 300.565 90.3012L300.589 90.2944L300.614 90.2883C301.123 90.1627 301.653 90.1432 302.17 90.2309C302.687 90.3186 303.18 90.5117 303.619 90.7982C304.058 91.0846 304.434 91.4583 304.722 91.8959C305.01 92.3335 305.205 92.8257 305.295 93.3419L305.295 93.3446C307.608 106.808 307.046 118.734 303.561 128.87C309.967 128.874 316.358 129.516 322.64 130.788L322.662 130.793ZM302.994 130.437C302.43 130.44 301.866 130.448 301.303 130.461C301.509 129.941 301.706 129.415 301.896 128.883C305.436 118.948 306.071 107.122 303.75 93.6094C303.697 93.305 303.582 93.0148 303.412 92.7567C303.242 92.4986 303.021 92.2782 302.762 92.1093C302.503 91.9404 302.212 91.8265 301.907 91.7748C301.602 91.723 301.29 91.7345 300.99 91.8086C293.889 93.8045 287.103 96.7759 280.826 100.635C280.372 100.915 279.92 101.199 279.47 101.488C279.286 100.987 279.097 100.488 278.902 99.9922C274.509 88.8194 267.322 78.9468 258.016 71.324C257.58 70.9876 257.036 70.8224 256.486 70.8597C255.936 70.897 255.419 71.1343 255.033 71.5266C245.53 81.1812 239.022 91.0881 235.592 101.044C235.415 101.56 235.245 102.075 235.084 102.591C234.634 102.286 234.181 101.985 233.726 101.689C227.001 97.3204 219.653 93.9872 211.929 91.8041C211.628 91.73 211.316 91.7185 211.011 91.7703C210.706 91.822 210.415 91.9359 210.156 92.1048C209.897 92.2737 209.676 92.4941 209.506 92.7522C209.336 93.0103 209.221 93.3005 209.168 93.6049C206.847 107.118 207.491 118.941 211.024 128.879C211.213 129.41 211.41 129.936 211.615 130.457C211.052 130.444 210.489 130.436 209.925 130.433C203.434 130.398 196.955 131.029 190.59 132.319C190.274 132.392 189.977 132.533 189.721 132.732C189.465 132.931 189.256 133.183 189.107 133.471C188.957 133.758 188.871 134.074 188.855 134.397C188.839 134.72 188.892 135.043 189.012 135.344C198.806 159.84 217.896 165.483 233.407 165.483C241.245 165.434 249.025 164.145 256.459 161.665C263.893 164.149 271.674 165.44 279.513 165.492C295.022 165.492 314.114 159.847 323.908 135.353C324.028 135.052 324.082 134.729 324.066 134.406C324.049 134.083 323.963 133.767 323.814 133.48C323.665 133.191 323.455 132.938 323.199 132.738C322.942 132.538 322.645 132.397 322.329 132.323C315.964 131.034 309.485 130.402 302.994 130.437ZM235.007 108.009C228.807 103.48 221.971 99.8972 214.722 97.3753C214.233 97.205 213.742 97.0395 213.249 96.8789C213.243 96.8771 213.237 96.8753 213.232 96.8735C213.225 96.8712 213.218 96.869 213.211 96.8667V96.8735C213.134 97.3999 213.062 97.9234 212.995 98.4439C211.375 111.018 212.606 121.842 216.609 130.693C228.644 131.658 242.251 135.473 251.417 146.202C251.959 146.837 252.486 147.496 252.995 148.179C252.975 147.334 252.975 146.489 252.995 145.644C253.073 142.336 253.458 139.04 254.145 135.799C251.322 124.537 244.527 114.67 235.007 108.009ZM252.536 135.834C249.753 125.081 243.221 115.668 234.108 109.292L234.095 109.283L234.082 109.273C228.094 104.899 221.499 101.425 214.51 98.9602C213.027 110.791 214.139 120.918 217.671 129.213C229.195 130.271 242.232 133.978 251.493 143.933C251.64 141.213 251.988 138.506 252.536 135.834ZM230.764 159.451C237.697 159.686 244.621 158.836 251.287 156.937C245.281 144.94 234.102 139.656 222.867 137.599C212.517 135.704 202.313 136.594 196.59 137.419C199.913 144.057 204.232 149.169 209.495 152.792C215.24 156.747 222.197 158.987 230.389 159.431L230.764 159.451ZM194.965 137.669C202.104 152.265 213.972 160.11 230.304 160.995V161.001C237.623 161.292 244.937 160.403 251.965 158.371C252.471 158.225 252.975 158.073 253.478 157.915C253.263 157.428 253.041 156.95 252.811 156.483C240.645 131.713 207.664 134.175 195.879 135.94C195.288 136.029 194.751 136.116 194.272 136.197C194.498 136.695 194.729 137.186 194.965 137.669ZM284.182 160.893C283.703 160.933 283.221 160.967 282.735 160.995C282.695 160.997 282.654 160.999 282.614 161.001V160.995M281.046 161.038C274.253 161.15 267.48 160.249 260.953 158.364C260.447 158.218 259.943 158.066 259.441 157.908C259.655 157.421 259.878 156.944 260.107 156.476C272.272 131.713 305.253 134.177 317.05 135.941C317.641 136.029 318.178 136.116 318.657 136.197C318.431 136.695 318.2 137.186 317.963 137.669C311.045 151.794 299.707 159.597 284.182 160.893M316.338 137.419C310.609 136.596 300.401 135.705 290.05 137.6C278.814 139.656 267.636 144.937 261.632 156.93C268.425 158.863 275.486 159.708 282.552 159.43L282.901 159.416C290.932 158.922 297.765 156.689 303.425 152.793C308.689 149.169 313.01 144.057 316.338 137.419ZM281.046 161.038C281.51 161.031 281.973 161.018 282.437 161.001C282.496 160.999 282.555 160.997 282.614 160.995M296.307 130.705C300.311 121.844 301.543 111.024 299.932 98.4576C299.865 97.9348 299.793 97.409 299.716 96.8802C299.211 97.0448 298.707 97.2144 298.206 97.3891C291.579 99.697 285.29 102.885 279.509 106.868C268.432 114.652 261.48 124.384 258.776 135.812C259.462 139.055 259.845 142.352 259.923 145.662C259.943 146.505 259.943 147.349 259.923 148.193C260.428 147.518 260.955 146.86 261.501 146.221C264.366 142.871 267.786 140.027 271.617 137.818C271.903 137.531 272.264 137.329 272.658 137.233C279.999 133.435 288.055 131.211 296.307 130.705ZM272.082 135.767C279.294 132.061 287.171 129.832 295.251 129.208C298.78 120.908 299.89 110.791 298.417 98.9745C292.037 101.227 285.98 104.312 280.404 108.153C269.706 115.673 263.041 124.981 260.382 135.837C260.93 138.514 261.279 141.227 261.426 143.952C264.124 141.05 267.239 138.555 270.676 136.552C271.083 136.193 271.563 135.925 272.082 135.767ZM256.885 78.3555C248.763 87.1715 243.394 96.0518 240.744 104.813C247.424 110.044 252.799 116.736 256.464 124.359C260.439 116.132 266.374 108.99 273.763 103.567C269.789 91.5458 261.239 82.4156 256.885 78.3555ZM275.601 104.176C271.31 90.0393 260.763 79.6664 256.795 76.157C247.639 85.8118 241.664 95.6354 238.94 105.403C246.169 110.839 251.897 118.005 255.604 126.225C255.902 126.886 256.187 127.554 256.459 128.228C256.733 127.555 257.02 126.887 257.319 126.227C261.329 117.391 267.636 109.773 275.601 104.176Z" fill="black"/>
<path d="M215.895 105.25C216.007 111.248 217.691 117.112 220.781 122.256L224.531 119.758C221.946 115.348 220.526 110.355 220.402 105.247L215.895 105.25Z" fill="black"/>
<path d="M297.023 105.25H292.516C292.401 110.358 290.98 115.352 288.388 119.758L292.138 122.256C295.227 117.112 296.912 111.248 297.023 105.25Z" fill="black"/>
</g>
</g>
<defs>
<clipPath id="clip0">
<rect width="535" height="535" fill="white"/>
</clipPath>
<clipPath id="clip1">
<rect width="175.582" height="228.107" fill="white" transform="translate(166.578 69.0322)"/>
</clipPath>
</defs>
</svg>
