<svg width="230" height="59" viewBox="0 0 230 59" fill="none" xmlns="http://www.w3.org/2000/svg">
<path fill-rule="evenodd" clip-rule="evenodd" d="M2.23668 24.5046C0.651838 26.7566 -0.570953 29.8206 0.277733 32.6488C1.12357 35.4684 3.82889 37.207 5.01115 39.885C5.67932 41.3986 5.69723 43.0629 5.72252 44.6877C5.75568 46.8148 5.33988 49.0735 6.77819 50.8711C7.62888 51.9342 8.91263 52.5625 10.2108 52.9752C12.818 53.804 15.5492 54.1929 17.865 55.7585C21.6695 58.3302 26.3417 59.2293 30.8755 58.9516C33.1747 58.8107 35.4548 58.3781 37.6573 57.7064C40.2161 56.9258 42.4905 55.5442 45.067 54.804C49.5322 53.5213 55.6379 53.5036 58.251 48.9884C60.0103 45.9483 60.6197 42.191 59.2512 38.8786C58.6003 37.3039 57.3584 36.101 56.6509 34.5549C55.6736 32.4186 55.41 29.9828 56.0629 27.7135C56.0901 27.6202 56.1184 27.5272 56.148 27.4346C56.8301 25.3128 58.2036 23.4885 58.7716 21.3288C59.9442 16.8697 57.3529 12.1551 53.9468 9.28899C52.5314 8.09802 50.9501 7.10687 49.2277 6.54168C46.8342 5.75657 44.3068 5.82468 41.7786 5.89297C39.2887 5.96025 36.7979 6.02736 34.4337 5.27941C30.7782 4.12291 27.777 1.11685 24.0525 0.24755C21.1901 -0.420575 18.097 0.292572 15.6656 2.03853C13.2343 3.78449 11.4697 6.51708 10.6654 9.52632C9.92024 12.3148 9.94368 15.3776 8.62192 17.9105C7.49106 20.0777 5.39547 21.247 3.69391 22.8192C3.16424 23.3086 2.67526 23.8813 2.23668 24.5046" fill="#D7B8C5"/>
<path fill-rule="evenodd" clip-rule="evenodd" d="M19.219 53.9761C17.8613 53.4927 16.4228 53.4287 14.9837 53.4285C14.4512 53.4285 13.9184 53.4375 13.3893 53.4375C13.2206 53.4375 13.0522 53.4365 12.8843 53.4341C11.8275 53.4195 10.4757 53.3257 9.29587 52.9474C8.70605 52.7584 8.15966 52.4984 7.71382 52.1444C7.26782 51.7901 6.92191 51.3431 6.72724 50.7733C6.514 50.1481 6.43426 49.5163 6.4341 48.8786C6.43265 47.0265 7.1127 45.1274 7.12222 43.2457V43.2054C7.12222 42.5269 7.047 41.8383 6.80956 41.1947C6.24298 39.6615 5.01637 38.7161 3.78379 37.7818C2.54894 36.8469 1.30684 35.9219 0.665524 34.4451C0.318961 33.6477 0.161418 32.7936 0.161418 31.9296C0.161256 30.3974 0.657776 28.8342 1.47051 27.5125C2.57493 25.7155 4.1975 24.2982 5.91918 23.0842C7.50801 21.9631 8.71687 20.1597 9.33833 18.3252C9.91814 16.6118 10.0289 14.8254 10.1574 13.0574C10.2855 11.2891 10.4318 9.53946 11.0715 7.89619C12.22 4.94393 14.4206 2.44388 17.163 1.12509C18.5406 0.46249 19.9899 0.160475 21.4382 0.160475C25.0173 0.159834 28.5922 2.00803 31.0256 4.81715C32.8848 6.96303 35.5541 8.20687 38.2716 8.42817C38.6569 8.45946 39.043 8.47326 39.4298 8.47326C42.3706 8.47246 45.3461 7.67618 48.2144 7.67714C50.1319 7.67747 51.9984 8.03003 53.7853 9.20631C56.2375 10.8201 57.9771 13.69 58.5179 16.717C58.6354 17.3747 58.7024 18.0607 58.7024 18.7472C58.7024 19.8409 58.5323 20.9355 58.1277 21.9189C57.479 23.4976 56.3531 24.7944 55.3778 26.1764C54.3383 27.6504 53.5974 29.4427 53.5969 31.2317C53.5967 32.2403 53.8335 33.2478 54.3858 34.1903C55.0537 35.3301 56.0132 36.2559 56.9161 37.1995C58.6502 39.0108 59.561 41.4707 59.5608 43.9456C59.5608 44.7462 59.4656 45.5482 59.2722 46.3302C58.3737 49.959 55.5371 52.3357 51.8294 52.7935C50.4544 52.963 48.9988 52.937 47.5693 53.0503C46.1399 53.1637 44.7346 53.417 43.4654 54.1526L43.5467 54.2911C44.7842 53.5738 46.1627 53.3228 47.582 53.2103C49.001 53.0975 50.4586 53.1238 51.8492 52.9527C55.6156 52.491 58.5176 50.0606 59.4291 46.3684C59.6255 45.5736 59.7222 44.7588 59.7222 43.9456C59.7222 41.432 58.7981 38.9329 57.0332 37.0889C56.1266 36.1426 55.1778 35.2242 54.5252 34.1095C53.9883 33.1927 53.7585 32.2156 53.7583 31.2317C53.758 29.4875 54.4844 27.722 55.5099 26.2685C56.4779 24.8952 57.6143 23.59 58.2772 21.9795C58.6916 20.9721 58.8638 19.8574 58.8638 18.7472C58.8638 18.0503 58.7958 17.3551 58.6767 16.689C58.1279 13.6218 56.3702 10.7165 53.8744 9.07248C52.0562 7.87501 50.151 7.51635 48.2144 7.51667C45.3167 7.51747 42.3416 8.31359 39.4298 8.31279C39.0469 8.31279 38.6651 8.29915 38.2848 8.26817C35.6074 8.05025 32.9768 6.82374 31.1478 4.71252C28.6865 1.87195 25.0738 0.000641902 21.4382 0C19.9673 0 18.493 0.306989 17.0927 0.980665C14.3087 2.32015 12.0836 4.85069 10.9209 7.83826C10.2705 9.51025 10.1251 11.2768 9.99643 13.0458C9.8681 14.8153 9.75656 16.5872 9.18546 18.274C8.5745 20.0795 7.37985 21.858 5.82572 22.9533C4.09516 24.1739 2.45468 25.6042 1.33282 27.4289C0.506205 28.7737 0.000161418 30.3628 0 31.9296C0 32.8129 0.161095 33.6891 0.517343 34.5088C1.18109 36.0344 2.45403 36.9755 3.68597 37.9094C4.92033 38.8439 6.1124 39.7701 6.65799 41.25C6.88639 41.8688 6.96081 42.5387 6.96081 43.2054L6.96065 43.2451C6.95435 45.0891 6.27414 46.9886 6.27268 48.8786C6.27268 49.5295 6.35436 50.1799 6.57437 50.8248C6.77937 51.4259 7.14708 51.9002 7.6131 52.2697C8.31252 52.8247 9.23114 53.1483 10.1737 53.3382C11.1162 53.528 12.0836 53.5834 12.8821 53.5946C13.0509 53.597 13.2199 53.598 13.3893 53.598C13.9202 53.598 14.453 53.589 14.9837 53.589C16.4183 53.5888 17.8374 53.6542 19.1645 54.1272L19.219 53.9761" fill="white"/>
<path d="M29.37 47.4683C29.4792 47.6461 29.7669 47.4767 29.649 47.2873C28.0849 44.6715 26.5999 41.9966 25.27 39.2478C24.456 37.2358 21.7033 32.8203 24.1158 31.2246C25.4807 30.5595 27.1185 30.5422 28.283 29.4082C29.9493 27.7521 28.4212 26.8372 28.342 27.8829V27.8756C27.7606 30.6048 23.5377 29.4154 22.7483 32.03C21.4609 34.8805 27.7027 44.5916 29.37 47.4683Z" fill="#543457"/>
<path d="M30.9115 46.8129C31.2892 46.9247 34.9258 36.563 35.1125 36.4411C35.1461 36.3511 35.1434 36.251 35.1049 36.1631C35.0665 36.0751 34.9955 36.0063 34.9075 35.9719C34.8195 35.9375 34.7218 35.9403 34.6359 35.9797C34.5499 36.019 34.4828 36.0917 34.4492 36.1818L30.8951 46.1601L27.3295 36.1818C27.3128 36.1372 27.2876 36.0965 27.2555 36.0619C27.2234 36.0273 27.1849 35.9995 27.1423 35.9801C27.0997 35.9607 27.0538 35.9501 27.0072 35.9489C26.9606 35.9477 26.9142 35.9559 26.8706 35.973C26.8271 35.9902 26.7873 36.0159 26.7535 36.0488C26.7197 36.0817 26.6926 36.1211 26.6737 36.1647C26.6547 36.2083 26.6444 36.2553 26.6432 36.303C26.642 36.3508 26.65 36.3982 26.6667 36.4428C26.8971 36.5624 30.4327 47.032 30.9115 46.8129Z" fill="#543457"/>
<path d="M26.0131 42.9501C25.6413 43.6208 25.2979 44.3519 24.7225 44.8616C24.52 45.0639 24.8355 45.3864 25.0326 45.1774C25.1502 45.0611 25.2542 44.9313 25.3427 44.7906C25.4393 44.6375 26.5591 42.6349 26.0131 42.9501Z" fill="#543457"/>
<path d="M38.5265 35.9597C39.2689 34.2981 39.7772 31.859 37.9936 30.6925C36.5392 29.8049 33.8444 29.9452 33.4355 27.8756V27.8828C33.4 27.1065 32.4605 27.4357 32.7804 28.2864C33.8554 31.5884 39.0293 29.6222 38.6247 33.6206C38.575 34.2293 38.3567 34.8279 38.1552 35.4008C36.5823 39.5725 34.3664 43.4631 32.1182 47.2816C32.158 48.7068 35.1842 42.5571 35.5068 42.1849C36.6091 40.165 37.6688 38.1065 38.5265 35.9597Z" fill="#543457"/>
<path d="M36.2567 20.3017C36.5024 18.7507 34.3558 22.7514 32.0459 20.7594C31.6233 20.7354 32.2937 21.2027 32.4133 21.2625C33.2016 21.7683 34.2149 21.6403 35.0098 21.2138C35.0644 21.3374 35.2828 21.3329 35.1987 21.1708C35.207 21.1613 35.2129 21.1499 35.2161 21.1375C35.2192 21.1252 35.2194 21.1123 35.2167 21.0998C35.5557 20.978 35.8172 20.4571 36.1628 20.7516C36.4484 20.7617 36.1737 20.5281 36.0427 20.5029C36.1142 20.4403 36.1847 20.3766 36.2567 20.3017Z" fill="#543457"/>
<path d="M45.4403 48.1698C44.13 43.5531 38.0154 45.6278 34.8866 46.8558C33.5731 47.4147 32.2836 48.0474 31.1142 48.8874C30.055 49.7928 28.8496 50.4853 27.5808 51.0437C24.803 52.2213 18.0574 54.6129 16.9147 50.3389C15.9227 43.1496 26.3803 47.1738 29.7853 48.6063C29.8247 48.6249 29.8673 48.6354 29.9107 48.6371C29.9541 48.6387 29.9973 48.6316 30.038 48.616C30.0786 48.6004 30.1158 48.5766 30.1474 48.5462C30.179 48.5157 30.2044 48.4792 30.2221 48.4386C30.4574 47.8065 28.5204 47.4706 28.0831 47.1933C26.0844 46.4572 24.0338 45.8363 21.9139 45.6004C19.812 45.3243 16.8727 45.6798 16.2983 48.1949C16.0319 49.3491 16.1067 50.6145 16.7072 51.6518C19.117 54.9935 24.7556 52.9317 27.8445 51.6574C29.1002 51.0867 30.3329 50.4132 31.3866 49.4927C32.5298 48.6415 33.822 48.0049 35.123 47.4432C38.1192 46.1884 44.8457 44.0601 45.0046 49.3094C45.1012 54.3553 38.6324 53.9288 35.3692 52.6187C34.1136 52.1297 32.8033 51.5009 31.9844 50.3713C31.2446 50.1036 32.2743 51.26 32.4577 51.374C36.1991 54.775 46.8237 55.8526 45.4403 48.1698Z" fill="#543457"/>
<path d="M36.9277 44.751C36.5717 44.3748 36.3173 43.9087 36.0607 43.4565C35.9133 43.2933 35.8839 42.8618 35.6344 42.8792C35.3827 43.0899 36.3348 44.6291 36.5188 44.9237C36.7929 45.4759 37.4316 45.1791 36.9277 44.751Z" fill="#543457"/>
<path d="M33.3891 24.1739C32.574 24.8357 31.3964 25.0123 30.4694 24.4942C30.4519 24.4826 30.4323 24.4746 30.4118 24.4709C30.3913 24.4671 30.3703 24.4675 30.35 24.4721C30.3296 24.4768 30.3104 24.4855 30.2934 24.4978C30.2764 24.5102 30.262 24.5258 30.251 24.5439C30.2613 25.1688 31.9636 25.2454 32.4424 25.0933C32.7869 24.9687 33.8859 24.7094 33.6926 24.2175C33.6577 24.1709 33.6064 24.1402 33.5496 24.1321C33.4928 24.1239 33.4351 24.1389 33.3891 24.1739Z" fill="#543457"/>
<path d="M26.0975 18.5938C26.0827 18.6553 26.1084 18.8129 26.0975 18.8733L28.991 17.8114C29.0057 17.7203 28.9768 17.4 28.991 17.3083L26.0975 18.5938Z" fill="#543457"/>
<path d="M32.2666 17.8114C33.299 18.1942 34.4504 18.605 35.4877 18.9851C35.4773 18.9242 35.5035 18.7671 35.4877 18.7056L32.2666 17.2524C32.2765 17.348 32.2541 17.7191 32.2666 17.8114Z" fill="#543457"/>
<path d="M24.941 20.839C24.9256 20.8547 24.9169 20.876 24.9168 20.8983C24.9168 20.9206 24.9254 20.942 24.9407 20.9578C24.9561 20.9735 24.9769 20.9824 24.9987 20.9825C25.0204 20.9825 25.0413 20.9737 25.0568 20.958C25.0824 20.92 25.3046 20.7345 25.2937 20.6819C26.3714 21.603 28.096 22.0272 29.1786 20.8887C29.1924 20.8744 29.2004 20.8552 29.2009 20.8351C29.2014 20.815 29.1944 20.7954 29.1814 20.7804C29.1684 20.7653 29.1502 20.7559 29.1306 20.754C29.1111 20.7521 29.0915 20.7579 29.076 20.7702C28.7883 21.0089 28.4596 21.2006 28.096 21.2777C26.9899 21.5142 25.9248 20.7948 25.1927 20.0068C25.173 19.9833 25.1489 19.9643 25.1217 19.9509C25.0945 19.9374 25.0649 19.93 25.0347 19.9289C25.0045 19.9278 24.9745 19.9331 24.9464 19.9445C24.9184 19.9558 24.8929 19.9731 24.8717 19.995C24.6582 20.2465 25.0382 20.4494 25.1911 20.5998C25.0944 20.6568 25.0262 20.7635 24.941 20.839Z" fill="#543457"/>
<path d="M47.112 22.4185C45.5206 20.6736 42.8105 23.1697 41.6744 21.1392C40.1927 22.5392 38.3512 23.5391 37.0634 25.1527C35.4829 27.0446 39.0129 27.0687 40.2844 26.4477C40.8012 26.0889 41.2665 25.6579 41.6668 25.1673C42.3765 24.3015 42.6757 23.0244 43.6163 22.3464C44.5679 21.6718 45.6871 22.2268 45.5457 23.4682C46.3417 23.5648 46.6682 22.9931 47.112 22.4185Z" fill="#744978"/>
<path d="M45.2766 23.5116C45.287 23.0913 45.2335 22.5737 44.83 22.3742C42.9045 22.0869 42.6795 24.8334 41.4604 25.8121C42.5976 24.9189 43.8855 23.639 45.2766 23.5116Z" fill="#543457"/>
<path d="M47.9366 23.2674C47.7443 23.0299 47.5367 22.8058 47.3153 22.5967C47.0827 22.861 46.8916 23.145 46.6323 23.4278C47.0047 23.3523 48.2117 23.9912 47.9366 23.2674Z" fill="#543457"/>
<path d="M31.3933 13.1282C31.1203 14.3019 30.7479 14.8424 31.2044 15.2197C32.0642 15.9613 33.1441 16.3218 34.2458 16.4398C35.4373 16.7908 36.6624 17.0084 37.8998 17.0887C38.9917 17.2323 40.1584 17.0093 41.1946 17.4559C41.378 13.7016 36.9204 8.3411 33.0573 9.27952C32.9426 9.30811 32.8263 9.3292 32.709 9.34267C31.8229 9.43993 31.6542 11.2581 31.3933 13.1282Z" fill="#543457"/>
<path d="M22.3852 23.2048C25.0243 26.8232 31.7094 29.2662 35.8842 25.6081C36.0166 25.7974 36.1779 25.9637 36.3619 26.1005C36.9078 23.9286 39.744 22.6353 41.2661 21.1564C41.3704 21.0646 41.4687 20.9658 41.5604 20.8607C41.2677 20.0307 41.2394 18.8564 41.2039 17.7632C39.5191 17.1266 37.6056 17.5637 35.8569 17.1065C37.3167 18.2657 37.4205 20.2437 37.1803 21.9735C36.9018 29.6384 21.5805 28.5832 23.9329 19.6635C24.4745 17.2267 28.6766 16.7823 29.8679 15.6293C31.3687 15.1346 31.0892 10.9003 31.8655 9.33088C22.6893 7.14273 17.9559 16.2659 22.3852 23.2048Z" fill="#543457"/>
<path d="M69.288 37.192C68.36 37.192 67.896 36.712 67.896 35.752V21.328C67.896 20.368 68.376 19.888 69.336 19.888C69.736 19.888 70.048 19.968 70.272 20.128C70.512 20.272 70.728 20.528 70.92 20.896L76.464 31.144L82.008 20.896C82.2 20.528 82.408 20.272 82.632 20.128C82.856 19.968 83.168 19.888 83.568 19.888C84.496 19.888 84.96 20.368 84.96 21.328V35.752C84.96 36.712 84.496 37.192 83.568 37.192C82.64 37.192 82.176 36.712 82.176 35.752V25.6L77.664 33.832C77.504 34.104 77.336 34.304 77.16 34.432C76.984 34.56 76.744 34.624 76.44 34.624C76.136 34.624 75.888 34.56 75.696 34.432C75.504 34.288 75.336 34.088 75.192 33.832L70.68 25.648V35.752C70.68 36.712 70.216 37.192 69.288 37.192ZM90.3159 37C89.2279 37 88.6839 36.456 88.6839 35.368V21.712C88.6839 20.624 89.2279 20.08 90.3159 20.08H98.8839C99.7159 20.08 100.132 20.48 100.132 21.28C100.132 22.112 99.7159 22.528 98.8839 22.528H91.6359V27.184H98.3559C99.1879 27.184 99.6039 27.592 99.6039 28.408C99.6039 29.224 99.1879 29.632 98.3559 29.632H91.6359V34.552H98.8839C99.7159 34.552 100.132 34.96 100.132 35.776C100.132 36.592 99.7159 37 98.8839 37H90.3159ZM104.636 37C103.548 37 103.004 36.456 103.004 35.368V21.712C103.004 20.624 103.548 20.08 104.636 20.08H109.292C112.124 20.08 114.308 20.808 115.844 22.264C117.396 23.72 118.172 25.808 118.172 28.528C118.172 31.232 117.396 33.32 115.844 34.792C114.308 36.264 112.124 37 109.292 37H104.636ZM106.076 34.456H109.1C113.004 34.456 114.956 32.48 114.956 28.528C114.956 24.592 113.004 22.624 109.1 22.624H106.076V34.456ZM125.822 37.192C124.798 37.192 124.286 36.656 124.286 35.584V29.224L119.15 22C118.942 21.712 118.846 21.408 118.862 21.088C118.894 20.752 119.03 20.472 119.27 20.248C119.51 20.008 119.846 19.888 120.278 19.888C120.902 19.888 121.446 20.216 121.91 20.872L125.87 26.488L129.854 20.872C130.11 20.52 130.358 20.272 130.598 20.128C130.838 19.968 131.134 19.888 131.486 19.888C132.11 19.888 132.518 20.12 132.71 20.584C132.918 21.032 132.838 21.512 132.47 22.024L127.358 29.248V35.584C127.358 36.656 126.846 37.192 125.822 37.192ZM140.36 37.24C139.288 37.24 138.24 37.12 137.216 36.88C136.208 36.64 135.328 36.28 134.576 35.8C134.208 35.56 133.984 35.264 133.904 34.912C133.824 34.56 133.848 34.232 133.976 33.928C134.12 33.608 134.336 33.392 134.624 33.28C134.928 33.152 135.272 33.208 135.656 33.448C136.36 33.864 137.104 34.168 137.888 34.36C138.672 34.552 139.496 34.648 140.36 34.648C141.624 34.648 142.544 34.44 143.12 34.024C143.696 33.592 143.984 33.04 143.984 32.368C143.984 31.808 143.776 31.368 143.36 31.048C142.96 30.728 142.264 30.464 141.272 30.256L138.632 29.704C135.624 29.064 134.12 27.52 134.12 25.072C134.12 24.016 134.4 23.096 134.96 22.312C135.52 21.528 136.296 20.92 137.288 20.488C138.28 20.056 139.424 19.84 140.72 19.84C141.68 19.84 142.592 19.96 143.456 20.2C144.32 20.44 145.096 20.792 145.784 21.256C146.104 21.48 146.296 21.76 146.36 22.096C146.424 22.416 146.384 22.72 146.24 23.008C146.096 23.28 145.864 23.472 145.544 23.584C145.24 23.68 144.88 23.608 144.464 23.368C143.872 23.032 143.272 22.792 142.664 22.648C142.056 22.504 141.4 22.432 140.696 22.432C139.592 22.432 138.728 22.664 138.104 23.128C137.48 23.592 137.168 24.2 137.168 24.952C137.168 25.528 137.36 25.992 137.744 26.344C138.128 26.68 138.784 26.944 139.712 27.136L142.328 27.688C143.912 28.024 145.088 28.552 145.856 29.272C146.64 29.992 147.032 30.952 147.032 32.152C147.032 33.16 146.76 34.048 146.216 34.816C145.672 35.584 144.896 36.184 143.888 36.616C142.896 37.032 141.72 37.24 140.36 37.24ZM154.933 37.192C153.909 37.192 153.397 36.664 153.397 35.608V22.648H148.717C147.837 22.648 147.397 22.216 147.397 21.352C147.397 20.504 147.837 20.08 148.717 20.08H161.149C162.029 20.08 162.469 20.504 162.469 21.352C162.469 22.216 162.029 22.648 161.149 22.648H156.469V35.608C156.469 36.664 155.957 37.192 154.933 37.192ZM162.516 37.192C161.956 37.192 161.556 37 161.316 36.616C161.076 36.232 161.084 35.768 161.34 35.224L167.676 21.184C167.884 20.72 168.132 20.392 168.42 20.2C168.724 19.992 169.068 19.888 169.452 19.888C169.82 19.888 170.148 19.992 170.436 20.2C170.74 20.392 170.996 20.72 171.204 21.184L177.564 35.224C177.82 35.784 177.836 36.256 177.612 36.64C177.388 37.008 177.004 37.192 176.46 37.192C176.012 37.192 175.66 37.088 175.404 36.88C175.164 36.656 174.948 36.32 174.756 35.872L173.556 33.088H165.3L164.124 35.872C163.916 36.336 163.7 36.672 163.476 36.88C163.252 37.088 162.932 37.192 162.516 37.192ZM169.404 23.416L166.356 30.64H172.5L169.452 23.416H169.404ZM187.728 37.24C185.968 37.24 184.456 36.888 183.192 36.184C181.944 35.464 180.984 34.456 180.312 33.16C179.64 31.848 179.304 30.304 179.304 28.528C179.304 26.752 179.64 25.216 180.312 23.92C180.984 22.624 181.944 21.624 183.192 20.92C184.456 20.2 185.968 19.84 187.728 19.84C188.608 19.84 189.472 19.952 190.32 20.176C191.168 20.4 191.912 20.72 192.552 21.136C192.968 21.408 193.216 21.736 193.296 22.12C193.376 22.488 193.328 22.832 193.152 23.152C192.976 23.456 192.712 23.664 192.36 23.776C192.008 23.872 191.616 23.776 191.184 23.488C190.688 23.168 190.152 22.936 189.576 22.792C189 22.648 188.416 22.576 187.824 22.576C186.112 22.576 184.808 23.096 183.912 24.136C183.016 25.16 182.568 26.624 182.568 28.528C182.568 30.432 183.016 31.904 183.912 32.944C184.808 33.984 186.112 34.504 187.824 34.504C188.432 34.504 189.032 34.432 189.624 34.288C190.216 34.128 190.776 33.888 191.304 33.568C191.736 33.296 192.12 33.208 192.456 33.304C192.792 33.4 193.04 33.6 193.2 33.904C193.376 34.192 193.432 34.512 193.368 34.864C193.304 35.216 193.088 35.528 192.72 35.8C192.08 36.264 191.312 36.624 190.416 36.88C189.536 37.12 188.64 37.24 187.728 37.24ZM195.354 37.168C194.906 37.184 194.554 37.064 194.298 36.808C194.042 36.552 193.914 36.224 193.914 35.824C193.914 35.52 194.01 35.256 194.202 35.032C194.378 34.792 194.642 34.664 194.994 34.648L195.714 34.6C197.138 34.504 197.85 33.72 197.85 32.248V21.448C197.85 20.408 198.362 19.888 199.386 19.888C200.41 19.888 200.922 20.408 200.922 21.448V32.224C200.922 33.728 200.522 34.896 199.722 35.728C198.922 36.56 197.738 37.024 196.17 37.12L195.354 37.168ZM204.75 37.192C204.19 37.192 203.79 37 203.55 36.616C203.31 36.232 203.318 35.768 203.574 35.224L209.91 21.184C210.118 20.72 210.366 20.392 210.654 20.2C210.958 19.992 211.302 19.888 211.686 19.888C212.054 19.888 212.382 19.992 212.67 20.2C212.974 20.392 213.23 20.72 213.438 21.184L219.798 35.224C220.054 35.784 220.07 36.256 219.846 36.64C219.622 37.008 219.238 37.192 218.694 37.192C218.246 37.192 217.894 37.088 217.638 36.88C217.398 36.656 217.182 36.32 216.99 35.872L215.79 33.088H207.534L206.358 35.872C206.15 36.336 205.934 36.672 205.71 36.88C205.486 37.088 205.166 37.192 204.75 37.192ZM211.638 23.416L208.59 30.64H214.734L211.686 23.416H211.638Z" fill="#543457"/>
</svg>
