<svg width="1048" height="437" viewBox="0 0 1048 437" fill="none" xmlns="http://www.w3.org/2000/svg">
<g clip-path="url(#clip0)">
<path d="M79.0508 280.789C91.3325 280.789 104.235 278.63 115.081 274.877C118.145 290.937 121.239 307.396 123.026 322.911C92.9865 323.842 72.5499 326 57.3695 329.809C35.3049 335.345 24.1172 345.224 24.1172 359.17C24.1172 375.496 40.2369 394.402 67.2374 409.743C70.4805 411.586 74.559 410.418 76.3711 407.228C78.1993 404.011 77.0732 399.922 73.8562 398.094C48.7523 383.83 37.5157 368.267 37.5157 359.17C37.5157 340.458 90.6304 337.047 130.583 336.109C143.523 342.158 157.511 345.19 171.5 345.19C185.489 345.19 199.477 342.158 212.417 336.109C252.37 337.047 305.484 340.458 305.484 359.17C305.484 381.65 259.548 404.651 237.591 412.038C235.668 402.967 230.701 394.818 223.305 388.926C221.172 387.228 218.895 385.769 216.519 384.53C227.662 379.983 238.432 375.918 251.891 375.918C255.591 375.918 258.59 372.919 258.59 369.219C258.59 365.519 255.591 362.519 251.891 362.519C234.874 362.519 221.797 367.883 209.151 373.069C201.545 376.189 194.361 379.135 186.414 380.926C186.384 380.932 186.353 380.94 186.322 380.947C182.442 381.876 176.814 382.617 171.5 382.617C157.124 382.617 145.818 377.979 133.847 373.069C121.202 367.883 108.126 362.519 91.1094 362.519C87.4094 362.519 84.4102 365.519 84.4102 369.219C84.4102 372.919 87.4094 375.918 91.1094 375.918C105.485 375.918 116.792 380.556 128.762 385.466C141.408 390.652 154.483 396.016 171.5 396.016C178.079 396.016 184.842 395.088 189.719 393.917C198.772 391.84 207.97 393.841 214.957 399.407C220.26 403.631 223.63 409.372 224.713 415.891C207.353 420.48 189.48 422.812 171.5 422.812C157.036 422.812 142.486 421.284 128.254 418.27C124.633 417.503 121.079 419.817 120.312 423.436C119.546 427.056 121.859 430.612 125.478 431.378C140.621 434.585 156.105 436.211 171.5 436.211C251.992 436.211 318.883 391.825 318.883 359.17C318.883 326.058 255.326 324.006 219.976 322.911C221.764 307.399 224.853 290.95 227.915 274.898C238.768 278.678 251.486 280.789 263.949 280.789C299.685 280.789 333.147 251.741 335.045 217.208C335.173 214.89 334.091 212.671 332.186 211.344C330.281 210.017 327.826 209.77 325.695 210.692C314.861 215.381 300.079 218.18 286.151 218.18C247.789 218.18 235.848 207.584 233.636 206.625C215.866 193.917 194.286 187 171.976 187H171.024C164.033 187 157.018 187.686 150.175 189.037C131.469 192.513 110.409 204.488 107.01 208.348C89.8553 221.33 70.1174 227.195 48.9043 227.195C34.9767 227.195 20.1942 224.396 9.3602 219.708C7.22985 218.786 4.77392 219.032 2.86933 220.359C0.964744 221.687 -0.117179 223.905 0.0101059 226.223C1.91402 260.856 43.4726 280.789 79.0508 280.789ZM136.641 324.149C132.923 289.071 122.594 250.703 119.082 216.184C126.877 210.916 135.574 206.838 144.703 204.162V213.797C144.703 228.573 156.724 240.594 171.5 240.594C186.276 240.594 198.297 228.573 198.297 213.797V204.161C207.42 206.836 216.115 210.912 223.919 216.185C220.456 250.389 210.088 289.017 206.359 324.148C184.283 334.331 158.718 334.332 136.641 324.149ZM286.151 231.579C297.144 231.579 308.683 229.998 318.883 227.195C310.538 244.915 292.716 267.391 263.949 267.391C252.367 267.391 240.211 265.243 230.445 261.558C232.759 249.204 234.895 237.051 236.389 225.106C252.042 234.895 265.024 231.579 286.151 231.579ZM171.976 200.398C176.293 200.398 180.62 200.703 184.898 201.294V213.797C184.898 221.185 178.888 227.195 171.5 227.195C164.112 227.195 158.102 221.185 158.102 213.797V201.294C162.38 200.703 166.706 200.398 171.024 200.398H171.976ZM48.9043 240.594C70.0343 240.594 90.964 234.893 106.617 225.104C108.134 237.182 110.309 249.554 112.554 261.552C102.788 265.242 90.6545 267.391 79.0508 267.391C50.2844 267.391 24.5178 253.93 16.1726 236.21C26.3729 239.013 37.9109 240.594 48.9043 240.594Z" fill="white"/>
<path fill-rule="evenodd" clip-rule="evenodd" d="M118.144 269.585L119.01 274.127C122.071 290.167 125.193 306.769 127 322.453L127.497 326.774L123.15 326.909C93.1888 327.838 73.0977 329.987 58.343 333.689L57.3695 329.809C71.8644 326.172 91.1515 324.04 119.015 323.045C120.332 322.998 121.669 322.953 123.026 322.911C122.874 321.589 122.712 320.259 122.541 318.924C120.876 305.882 118.385 292.264 115.837 278.846C115.585 277.521 115.333 276.198 115.081 274.877C113.828 275.31 112.548 275.723 111.245 276.113C101.262 279.1 89.914 280.789 79.0508 280.789C43.4726 280.789 1.91402 260.856 0.0101059 226.223C-0.117179 223.905 0.964744 221.687 2.86933 220.359C4.77392 219.032 7.22985 218.786 9.3602 219.708C20.1942 224.396 34.9767 227.195 48.9043 227.195C70.1174 227.195 89.8553 221.33 107.01 208.348C110.409 204.488 131.469 192.513 150.175 189.037C157.018 187.686 164.033 187 171.024 187H171.976C194.286 187 215.866 193.917 233.636 206.625C233.894 206.737 234.286 206.98 234.836 207.323C238.999 209.916 252.271 218.18 286.151 218.18C300.079 218.18 314.861 215.381 325.695 210.692C327.826 209.77 330.281 210.017 332.186 211.344C334.091 212.671 335.173 214.89 335.045 217.208C333.147 251.741 299.685 280.789 263.949 280.789C252.927 280.789 241.705 279.138 231.75 276.141C230.449 275.749 229.169 275.335 227.915 274.898C227.663 276.219 227.411 277.543 227.159 278.868C224.614 292.278 222.126 305.886 220.46 318.924C220.29 320.259 220.128 321.589 219.976 322.911C221.276 322.951 222.615 322.993 223.988 323.037C259.917 324.199 318.883 327.276 318.883 359.17C318.883 391.825 251.992 436.211 171.5 436.211C156.105 436.211 140.621 434.585 125.478 431.378C121.859 430.612 119.546 427.056 120.312 423.436C121.079 419.817 124.633 417.503 128.254 418.27C142.486 421.284 157.036 422.812 171.5 422.812C189.48 422.812 207.353 420.48 224.713 415.891C223.63 409.372 220.26 403.631 214.957 399.407C207.97 393.841 198.772 391.84 189.719 393.917C184.842 395.088 178.079 396.016 171.5 396.016C154.484 396.016 141.409 390.653 128.765 385.467L128.762 385.466L128.759 385.464C116.789 380.555 105.484 375.918 91.1094 375.918C87.4094 375.918 84.4102 372.919 84.4102 369.219C84.4102 365.519 87.4094 362.519 91.1094 362.519C108.125 362.519 121.2 367.882 133.845 373.068L133.847 373.069L133.851 373.071C145.82 377.98 157.126 382.617 171.5 382.617C176.814 382.617 182.442 381.876 186.322 380.947C186.353 380.94 186.384 380.932 186.414 380.926C194.361 379.135 201.545 376.189 209.151 373.069L210.669 376.77L210.528 376.828C203.016 379.909 195.569 382.963 187.294 384.828L187.279 384.831L187.278 384.831L187.27 384.833L187.264 384.834L187.254 384.837C187.253 384.837 187.253 384.837 187.252 384.837C183.066 385.84 177.127 386.617 171.5 386.617C156.336 386.617 144.405 381.723 132.567 376.868L132.329 376.77C119.66 371.574 107.249 366.519 91.1094 366.519C89.6186 366.519 88.4102 367.728 88.4102 369.219C88.4102 370.709 89.6186 371.918 91.1094 371.918C106.274 371.918 118.205 376.812 130.042 381.667L130.28 381.765C142.95 386.961 155.36 392.016 171.5 392.016C177.75 392.016 184.2 391.128 188.785 390.027L188.805 390.022L188.825 390.018C199.01 387.681 209.466 389.919 217.449 396.278C223.517 401.111 227.412 407.73 228.658 415.236L229.255 418.828L225.735 419.759C208.043 424.435 189.826 426.812 171.5 426.812C156.756 426.812 141.928 425.255 127.425 422.184C125.967 421.875 124.535 422.805 124.225 424.265C123.916 425.723 124.849 427.156 126.306 427.465C141.178 430.614 156.385 432.211 171.5 432.211C211.045 432.211 247.212 421.298 273.404 406.456C286.503 399.033 296.984 390.696 304.141 382.375C311.348 373.996 314.883 365.997 314.883 359.17C314.883 352.415 311.735 347.175 306.005 342.893C300.134 338.506 291.701 335.27 281.767 332.927C261.922 328.248 237.613 327.459 219.852 326.909L215.504 326.774L216.002 322.453C217.809 306.772 220.928 290.181 223.986 274.148L224.854 269.596L229.23 271.12C239.636 274.745 251.907 276.789 263.949 276.789C297.808 276.789 329.282 249.164 331.051 216.989C331.103 216.054 330.667 215.161 329.9 214.627C329.132 214.091 328.142 213.992 327.284 214.363C315.867 219.305 300.528 222.18 286.151 222.18C266.599 222.18 253.575 219.479 245.037 216.545C240.766 215.077 237.652 213.563 235.437 212.331C234.334 211.718 233.469 211.184 232.841 210.793C232.494 210.577 232.284 210.449 232.164 210.375C232.011 210.281 232.003 210.277 232.044 210.294L231.655 210.125L231.309 209.878C214.225 197.662 193.461 191 171.976 191H171.024C164.293 191 157.538 191.661 150.95 192.961L150.928 192.965L150.906 192.969C142.032 194.619 132.447 198.324 124.604 202.144C120.701 204.046 117.291 205.946 114.682 207.58C111.931 209.304 110.436 210.51 110.012 210.991L109.745 211.294L109.424 211.537C91.502 225.1 70.8936 231.195 48.9043 231.195C34.5271 231.195 19.1889 228.32 7.77147 223.379C6.91301 223.007 5.92343 223.107 5.15613 223.641C4.38877 224.176 3.95281 225.07 4.00409 226.004C4.8613 241.597 14.6334 254.213 29.0048 263.09C43.3877 271.975 61.9301 276.789 79.0508 276.789C90.9041 276.789 103.363 274.699 113.773 271.097L118.144 269.585ZM221.269 382.626C230.786 378.907 240.35 375.918 251.891 375.918C255.591 375.918 258.59 372.919 258.59 369.219C258.59 365.519 255.591 362.519 251.891 362.519C234.874 362.519 221.798 367.883 209.152 373.069L209.151 373.069L210.669 376.77C223.339 371.574 235.751 366.519 251.891 366.519C253.381 366.519 254.59 367.728 254.59 369.219C254.59 370.71 253.381 371.918 251.891 371.918C237.586 371.918 226.186 376.265 215.007 380.827L207.016 384.088L214.67 388.077C216.833 389.205 218.893 390.526 220.813 392.055C227.476 397.363 231.945 404.696 233.678 412.868L234.61 417.261L238.867 415.829C250.131 412.04 267.43 404.297 281.99 394.592C289.269 389.741 296.025 384.293 301.003 378.476C305.94 372.707 309.484 366.154 309.484 359.17C309.484 352.244 304.49 347.475 298.432 344.269C292.282 341.014 283.913 338.717 274.646 337.038C256.037 333.669 232.494 332.579 212.511 332.11L211.573 332.088L210.723 332.485C198.32 338.283 184.912 341.19 171.5 341.19C158.088 341.19 144.68 338.283 132.277 332.485L131.427 332.088L130.489 332.11C110.506 332.579 86.9629 333.669 68.3544 337.038C59.0868 338.717 50.7183 341.014 44.568 344.269C38.5098 347.475 33.5157 352.244 33.5157 359.17C33.5157 365.159 37.0771 372.246 43.2589 379.325C49.5627 386.545 59.0272 394.269 71.8802 401.572C73.1762 402.308 73.63 403.956 72.8935 405.252C72.1608 406.541 70.5151 407.005 69.2137 406.265C56.002 398.759 45.6231 390.472 38.5959 382.23C31.531 373.944 28.1172 366.027 28.1172 359.17C28.1172 353.428 30.357 348.537 35.1167 344.334C40.0047 340.018 47.632 336.376 58.343 333.689L57.3695 329.809C35.3049 335.345 24.1172 345.224 24.1172 359.17C24.1172 375.496 40.2369 394.402 67.2374 409.743C70.4805 411.586 74.559 410.418 76.3711 407.228C78.1993 404.011 77.0732 399.922 73.8562 398.094C48.7523 383.83 37.5157 368.267 37.5157 359.17C37.5157 340.458 90.6304 337.047 130.583 336.109C143.523 342.158 157.511 345.19 171.5 345.19C185.489 345.19 199.477 342.158 212.417 336.109C252.37 337.047 305.484 340.458 305.484 359.17C305.484 380.422 264.428 402.141 241.391 410.691C240.061 411.185 238.79 411.635 237.591 412.038C237.313 410.725 236.971 409.432 236.567 408.162C234.179 400.656 229.631 393.965 223.305 388.926C222.499 388.284 221.673 387.677 220.828 387.102C219.437 386.157 217.997 385.301 216.519 384.53C218.107 383.882 219.687 383.244 221.269 382.626ZM132.902 326.83L132.663 324.571C130.837 307.34 127.393 289.272 123.924 271.065L123.855 270.705C120.376 252.448 116.879 234.052 115.103 216.589L114.86 214.209L116.842 212.87C124.984 207.367 134.058 203.114 143.578 200.324L148.703 198.821V213.797C148.703 226.364 158.933 236.594 171.5 236.594C184.067 236.594 194.297 226.364 194.297 213.797V198.82L199.422 200.323C208.936 203.112 218.008 207.364 226.158 212.871L228.139 214.209L227.898 216.588C226.146 233.895 222.652 252.28 219.168 270.567L219.107 270.886C215.63 289.139 212.17 307.3 210.337 324.571L210.097 326.829L208.035 327.781C184.895 338.454 158.106 338.454 134.965 327.781L132.902 326.83ZM326.205 221.035L322.501 228.9C313.932 247.095 295.076 271.391 263.949 271.391C251.925 271.391 239.286 269.17 229.033 265.301L225.896 264.117L226.513 260.822C228.824 248.486 230.941 236.43 232.42 224.61L233.198 218.393L238.51 221.715C245.636 226.172 252.096 227.65 259.418 228.018C263.149 228.206 267.087 228.105 271.522 227.946C272.135 227.925 272.757 227.902 273.389 227.878C277.284 227.735 281.529 227.579 286.151 227.579C296.787 227.579 307.969 226.045 317.823 223.338L326.205 221.035ZM188.898 197.809V213.797C188.898 223.394 181.097 231.195 171.5 231.195C161.903 231.195 154.102 223.394 154.102 213.797V197.809L157.554 197.332C162.009 196.716 166.518 196.398 171.024 196.398H171.976C176.481 196.398 180.991 196.716 185.446 197.332L188.898 197.809ZM109.805 218.392L110.586 224.605C112.088 236.562 114.244 248.838 116.485 260.816L117.102 264.109L113.968 265.293C103.714 269.169 91.0967 271.391 79.0508 271.391C64.0643 271.391 49.8123 267.889 38.1546 262.018C26.5444 256.171 17.2182 247.818 12.5539 237.915L8.85013 230.051L17.2323 232.353C27.0866 235.061 38.2682 236.594 48.9043 236.594C69.377 236.594 89.5532 231.058 104.496 221.712L109.805 218.392ZM206.359 324.148C208.21 306.713 211.696 288.416 215.161 270.226C218.678 251.765 222.174 233.414 223.919 216.185C217.264 211.688 209.961 208.062 202.297 205.433C200.974 204.979 199.64 204.555 198.297 204.161V213.797C198.297 228.573 186.276 240.594 171.5 240.594C156.724 240.594 144.703 228.573 144.703 213.797V204.162C143.36 204.556 142.026 204.98 140.703 205.433C133.034 208.063 125.73 211.691 119.082 216.184C120.853 233.584 124.355 251.962 127.87 270.404C131.328 288.548 134.797 306.753 136.641 324.149C158.718 334.332 184.283 334.331 206.359 324.148ZM240.15 227.238C250.913 232.708 260.788 232.345 273.546 231.875C277.443 231.732 281.609 231.579 286.151 231.579C295.351 231.579 304.932 230.471 313.791 228.468C315.518 228.077 317.218 227.653 318.883 227.195C318.151 228.75 317.346 230.34 316.467 231.95C307.327 248.685 290.192 267.391 263.949 267.391C252.367 267.391 240.211 265.243 230.445 261.558C232.48 250.693 234.377 239.983 235.822 229.434C236.02 227.989 236.209 226.546 236.389 225.106C237.658 225.9 238.91 226.608 240.15 227.238ZM21.4283 237.52C30.2418 239.5 39.7614 240.594 48.9043 240.594C68.3892 240.594 87.7038 235.746 102.867 227.315C104.147 226.603 105.398 225.866 106.617 225.104C106.798 226.546 106.989 227.993 107.187 229.442C108.654 240.132 110.577 250.987 112.554 261.552C102.788 265.242 90.6545 267.391 79.0508 267.391C52.9687 267.391 29.3528 256.325 18.9522 241.052C17.8818 239.48 16.9514 237.864 16.1726 236.21C17.8896 236.682 19.6445 237.119 21.4283 237.52ZM184.898 201.294C180.62 200.703 176.293 200.398 171.976 200.398H171.024C166.706 200.398 162.38 200.703 158.102 201.294V213.797C158.102 221.185 164.112 227.195 171.5 227.195C178.888 227.195 184.898 221.185 184.898 213.797V201.294Z" fill="white"/>
<path d="M97.8086 423.482C101.508 423.482 104.508 420.483 104.508 416.783C104.508 413.083 101.508 410.084 97.8086 410.084C94.1087 410.084 91.1094 413.083 91.1094 416.783C91.1094 420.483 94.1087 423.482 97.8086 423.482Z" fill="white"/>
<path d="M298.05 121.251C284.813 118.567 271.317 117.37 257.814 117.684C265.577 98.0408 267.177 74.3565 262.498 47.0843C262.397 46.5011 262.177 45.945 261.851 45.4506C261.526 44.9561 261.102 44.534 260.607 44.2104C260.111 43.8867 259.554 43.6686 258.971 43.5695C258.387 43.4704 257.79 43.4924 257.215 43.6343C242.643 47.735 228.764 53.9849 216.035 62.1781C207.754 39.5959 193.578 19.6426 174.98 4.39056C174.145 3.74597 173.104 3.42951 172.051 3.50103C170.999 3.57255 170.01 4.02708 169.27 4.77869C150.144 24.2324 137.358 44.2208 131.096 64.2912C117.53 55.0692 102.569 48.0914 86.785 43.6257C86.2104 43.4838 85.6127 43.4617 85.0292 43.5608C84.4457 43.6599 83.8888 43.8781 83.3933 44.2017C82.8977 44.5254 82.4741 44.9475 82.1487 45.442C81.8234 45.9364 81.6033 46.4925 81.5022 47.0757C76.8231 74.3479 78.4403 98.0279 86.1856 117.676C72.6827 117.362 59.1871 118.558 45.9499 121.242C45.3453 121.383 44.7784 121.653 44.2884 122.034C43.7985 122.415 43.3972 122.898 43.1123 123.45C42.826 124 42.6616 124.605 42.6303 125.224C42.5991 125.843 42.7017 126.462 42.9312 127.038C61.6733 173.967 98.2045 184.778 127.887 184.778C142.885 184.683 157.774 182.214 172 177.464C186.226 182.221 201.116 184.696 216.117 184.795C245.795 184.795 282.331 173.98 301.073 127.055C301.303 126.479 301.405 125.861 301.374 125.242C301.343 124.622 301.178 124.017 300.892 123.467C300.608 122.914 300.206 122.429 299.715 122.046C299.225 121.663 298.656 121.392 298.05 121.251ZM248.254 118.15C232.462 119.121 217.048 123.381 202.998 130.656C202.244 130.84 201.555 131.228 201.006 131.777C192.277 136.818 184.663 143.58 178.628 151.654C178.817 143.689 178.08 135.73 176.433 127.935C181.608 106.04 194.912 87.3975 216.108 72.4849C228.008 64.2759 241.033 57.831 254.778 53.3504C258.461 78.7165 256.236 100.469 248.254 118.15ZM172.643 13.6495C180.237 20.3727 200.419 40.2447 208.63 67.3272C192.249 78.8511 179.533 94.848 172 113.406C165.013 96.0503 153.422 80.9307 138.475 69.6775C143.688 50.9656 155.121 32.1458 172.643 13.6495ZM89.2388 53.3245C104.184 58.1883 118.263 65.3935 130.949 74.6714C149.166 87.4314 162.169 106.334 167.571 127.909C165.921 135.703 165.183 143.663 165.372 151.628C147.902 128.168 120.134 120.086 95.7421 118.128C87.7639 100.469 85.5387 78.7122 89.2388 53.3374V53.3245ZM121.949 176.179C89.6614 174.428 66.4904 158.446 52.9966 128.672C72.5451 125.343 143.046 117.425 166.295 170.279C151.963 174.789 136.961 176.789 121.949 176.192V176.179ZM222.051 176.179C207.039 176.771 192.038 174.771 177.705 170.267C200.95 117.43 271.446 125.348 291.025 128.672C277.51 158.446 254.339 174.428 222.051 176.192V176.179Z" fill="white"/>
<path fill-rule="evenodd" clip-rule="evenodd" d="M298.688 118.319L298.73 118.329C299.76 118.568 300.726 119.03 301.56 119.68C302.392 120.329 303.074 121.151 303.557 122.09C304.04 123.02 304.317 124.043 304.37 125.09C304.423 126.14 304.249 127.189 303.86 128.166L303.859 128.168C294.25 152.225 279.989 167.209 264.171 176.135C248.404 185.031 231.3 187.795 216.117 187.795H216.107L216.097 187.795C201.114 187.696 186.238 185.276 171.999 180.624C157.761 185.269 142.887 187.683 127.906 187.778L127.897 187.778H127.887C112.703 187.778 95.5981 185.015 79.8322 176.119C64.0146 167.194 49.7539 152.21 40.1452 128.151L40.1443 128.149C39.7552 127.172 39.5812 126.123 39.6342 125.073C39.6871 124.024 39.9652 122.999 40.4496 122.068C40.9337 121.133 41.6149 120.313 42.4461 119.666C43.279 119.018 44.2426 118.559 45.2704 118.32L45.312 118.31L45.3538 118.302C57.3759 115.864 69.6077 114.634 81.8671 114.627C75.2106 95.2068 74.1197 72.3636 78.5454 46.5684L78.5463 46.5631C78.7178 45.5743 79.0909 44.6313 79.6426 43.7929C80.1943 42.9545 80.9126 42.2387 81.7529 41.6899C82.5932 41.1411 83.5374 40.7712 84.5269 40.6032C85.5163 40.4351 86.5298 40.4726 87.5041 40.7131L87.5531 40.7252L87.6017 40.739C102.426 44.9332 116.539 51.3007 129.483 59.6279C136.29 40.2785 148.944 21.174 167.131 2.67546L167.132 2.6744C168.386 1.39993 170.064 0.629204 171.848 0.507935C173.632 0.386666 175.399 0.923267 176.814 2.01627L176.848 2.04305L176.882 2.07083C194.943 16.8816 208.923 36.029 217.534 57.6971C229.65 50.2997 242.727 44.5949 256.402 40.7465L256.449 40.7334L256.496 40.7218C257.47 40.4812 258.484 40.4438 259.473 40.6118C260.463 40.7799 261.407 41.1498 262.247 41.6985C263.087 42.2473 263.806 42.9631 264.357 43.8015C264.909 44.6399 265.282 45.5829 265.454 46.5718L265.455 46.577C269.88 72.3693 268.805 95.2167 262.136 114.635C274.394 114.643 286.625 115.873 298.646 118.31L298.688 118.319ZM261.05 117.638C259.972 117.644 258.893 117.659 257.814 117.684C258.209 116.687 258.587 115.679 258.949 114.661C265.723 95.6265 266.939 72.9719 262.498 47.0843C262.397 46.5011 262.177 45.945 261.851 45.4506C261.526 44.9561 261.102 44.534 260.607 44.2104C260.111 43.8867 259.554 43.6686 258.971 43.5695C258.387 43.4704 257.79 43.4924 257.215 43.6343C243.627 47.458 230.642 53.1504 218.63 60.5446C217.76 61.0802 216.895 61.6247 216.035 62.1781C215.683 61.218 215.32 60.2626 214.947 59.3122C206.541 37.9077 192.788 18.9941 174.98 4.39056C174.145 3.74597 173.104 3.42951 172.051 3.50103C170.999 3.57255 170.01 4.02708 169.27 4.77869C151.086 23.2746 138.632 42.2539 132.068 61.3274C131.728 62.3151 131.404 63.3031 131.096 64.2912C130.235 63.7059 129.368 63.1296 128.496 62.5625C115.628 54.1936 101.567 47.808 86.785 43.6257C86.2104 43.4838 85.6127 43.4617 85.0292 43.5608C84.4457 43.6599 83.8888 43.8781 83.3933 44.2017C82.8977 44.5254 82.4741 44.9475 82.1487 45.442C81.8234 45.9364 81.6033 46.4925 81.5022 47.0757C77.0606 72.9635 78.2924 95.6145 85.0535 114.652C85.415 115.67 85.7924 116.678 86.1856 117.676C85.1073 117.651 84.0291 117.635 82.951 117.629C70.529 117.562 58.13 118.772 45.9499 121.242C45.3453 121.383 44.7784 121.653 44.2884 122.034C43.7985 122.415 43.3972 122.898 43.1123 123.45C42.826 124 42.6616 124.605 42.6303 125.224C42.5991 125.843 42.7017 126.462 42.9312 127.038C61.6733 173.967 98.2045 184.778 127.887 184.778C142.885 184.683 157.774 182.214 172 177.464C186.226 182.221 201.116 184.696 216.117 184.795C245.795 184.795 282.331 173.98 301.073 127.055C301.303 126.479 301.405 125.861 301.374 125.242C301.343 124.622 301.178 124.017 300.892 123.467C300.608 122.914 300.206 122.429 299.715 122.046C299.225 121.663 298.656 121.392 298.05 121.251C285.87 118.781 273.472 117.571 261.05 117.638ZM130.949 74.6714C119.084 65.9943 106.002 59.1301 92.1312 54.2987C91.1945 53.9725 90.2543 53.6555 89.3107 53.3479C89.3 53.3444 89.2892 53.3409 89.2785 53.3374C89.2653 53.3331 89.252 53.3288 89.2388 53.3245V53.3374C89.0917 54.346 88.954 55.3489 88.8257 56.346C85.7247 80.4352 88.081 101.171 95.7421 118.128C118.772 119.977 144.811 127.285 162.351 147.84C163.389 149.056 164.396 150.318 165.372 151.628C165.333 150.008 165.333 148.389 165.371 146.771C165.521 140.433 166.256 134.118 167.571 127.909C162.169 106.334 149.166 87.4314 130.949 74.6714ZM164.493 127.977C159.168 107.377 146.667 89.3438 129.228 77.1285L129.203 77.111L129.178 77.0929C117.719 68.7122 105.099 62.0574 91.7242 57.3351C88.8872 80.0009 91.0149 99.4004 97.7741 115.292C119.826 117.32 144.775 124.422 162.496 143.493C162.778 138.282 163.444 133.096 164.493 127.977ZM122.828 173.222C136.096 173.671 149.346 172.044 162.102 168.405C150.61 145.421 129.216 135.299 107.717 131.358C87.9106 127.728 68.3835 129.434 57.433 131.013C63.7917 143.731 72.056 153.523 82.1275 160.464C93.1223 168.041 106.434 172.333 122.112 173.183L122.828 173.222ZM54.3235 131.492C67.9847 159.456 90.696 174.484 121.949 176.179V176.192C135.954 176.749 149.95 175.046 163.401 171.153C164.368 170.873 165.333 170.582 166.295 170.279C165.884 169.346 165.459 168.431 165.019 167.535C141.738 120.081 78.6241 124.798 56.0709 128.181C54.941 128.35 53.9128 128.516 52.9966 128.672C53.4289 129.627 53.8713 130.566 54.3235 131.492ZM225.051 175.985C224.136 176.061 223.213 176.126 222.283 176.179C222.206 176.183 222.128 176.188 222.051 176.192V176.179M219.051 176.263C206.05 176.477 193.091 174.75 180.6 171.14C179.632 170.86 178.667 170.569 177.705 170.267C178.116 169.333 178.542 168.418 178.981 167.522C202.26 120.083 265.374 124.803 287.95 128.182C289.08 128.351 290.108 128.517 291.025 128.672C290.592 129.627 290.149 130.566 289.696 131.492C276.457 158.553 254.761 173.501 225.051 175.985M286.585 131.014C275.623 129.436 256.09 127.731 236.28 131.36C214.78 135.299 193.389 145.417 181.899 168.391C194.899 172.096 208.411 173.715 221.933 173.181L222.599 173.155C237.968 172.209 251.044 167.93 261.875 160.466C271.949 153.523 280.218 143.731 286.585 131.014ZM219.051 176.263C219.938 176.248 220.825 176.225 221.712 176.192C221.825 176.188 221.938 176.183 222.051 176.179M248.254 118.15C255.917 101.175 258.274 80.4474 255.191 56.3722C255.063 55.3707 254.926 54.3634 254.778 53.3504C253.811 53.6656 252.848 53.9907 251.888 54.3253C239.206 58.7467 227.171 64.8535 216.108 72.4849C194.912 87.3975 181.608 106.04 176.433 127.935C177.746 134.147 178.48 140.464 178.629 146.805C178.667 148.42 178.667 150.037 178.628 151.654C179.595 150.36 180.603 149.1 181.649 147.876C187.131 141.457 193.675 136.01 201.006 131.777C201.555 131.228 202.244 130.84 202.998 130.656C217.048 123.381 232.462 119.121 248.254 118.15ZM201.897 127.848C215.697 120.749 230.772 116.479 246.234 115.283C252.986 99.3815 255.111 79.9999 252.293 57.3626C240.083 61.6771 228.491 67.5887 217.822 74.9471C197.351 89.3537 184.595 107.186 179.507 127.983C180.557 133.112 181.224 138.308 181.504 143.529C186.667 137.97 192.629 133.19 199.206 129.353C199.985 128.664 200.903 128.151 201.897 127.848ZM172.814 17.8612C157.272 34.7507 146.998 51.7633 141.927 68.5469C154.709 78.5699 164.995 91.389 172.009 105.993C179.615 90.2332 190.973 76.549 205.114 66.1605C197.508 43.1308 181.147 25.6395 172.814 17.8612ZM208.63 67.3272C200.419 40.2447 180.237 20.3727 172.643 13.6495C155.121 32.1458 143.688 50.9656 138.475 69.6775C152.309 80.093 163.269 93.8207 170.364 109.568C170.934 110.835 171.48 112.114 172 113.406C172.524 112.116 173.073 110.837 173.646 109.572C181.319 92.6445 193.388 78.0497 208.63 67.3272Z" fill="white"/>
<path d="M94.375 69.3842C94.5888 80.8753 97.8125 92.1093 103.724 101.965L110.901 97.1783C105.955 88.7309 103.237 79.1656 103 69.3799L94.375 69.3842Z" fill="white"/>
<path d="M249.625 69.3843H241C240.78 79.1711 238.06 88.7389 233.1 97.1783L240.276 101.965C246.187 92.1093 249.411 80.8753 249.625 69.3843Z" fill="white"/>
</g>
<path d="M433.72 427.16C431 427.16 428.76 426.28 427 424.52C425.24 422.92 424.36 420.68 424.36 417.8V347.24C419.08 354.76 412.12 360.84 403.48 365.48C394.84 369.96 385.16 372.2 374.44 372.2C362.12 372.2 351.08 369.32 341.32 363.56C331.56 357.64 323.8 349.64 318.04 339.56C312.44 329.48 309.64 318.12 309.64 305.48C309.64 292.68 312.52 281.24 318.28 271.16C324.2 261.08 332.2 253.16 342.28 247.4C352.36 241.48 363.72 238.52 376.36 238.52C388.84 238.52 400.04 241.4 409.96 247.16C420.04 252.92 427.96 260.84 433.72 270.92C439.64 280.84 442.76 292.04 443.08 304.52V417.8C443.08 420.68 442.2 422.92 440.44 424.52C438.68 426.28 436.44 427.16 433.72 427.16ZM376.36 355.4C385.64 355.4 393.88 353.24 401.08 348.92C408.44 344.6 414.2 338.68 418.36 331.16C422.68 323.48 424.84 314.92 424.84 305.48C424.84 295.88 422.68 287.32 418.36 279.8C414.2 272.28 408.44 266.36 401.08 262.04C393.88 257.56 385.64 255.32 376.36 255.32C367.24 255.32 359 257.56 351.64 262.04C344.28 266.36 338.44 272.28 334.12 279.8C329.8 287.32 327.64 295.88 327.64 305.48C327.64 314.92 329.8 323.48 334.12 331.16C338.44 338.68 344.28 344.6 351.64 348.92C359 353.24 367.24 355.4 376.36 355.4ZM526.408 372.44C515.048 372.44 504.888 370.12 495.928 365.48C486.968 360.68 479.848 353.72 474.568 344.6C469.448 335.48 466.888 324.36 466.888 311.24V248.84C466.888 246.28 467.768 244.12 469.528 242.36C471.288 240.6 473.448 239.72 476.008 239.72C478.728 239.72 480.968 240.6 482.728 242.36C484.488 244.12 485.368 246.28 485.368 248.84V311.24C485.368 325.96 489.448 336.92 497.608 344.12C505.768 351.32 516.008 354.92 528.328 354.92C536.168 354.92 543.208 353.4 549.448 350.36C555.848 347.32 560.888 343.16 564.568 337.88C568.248 332.6 570.088 326.6 570.088 319.88V248.84C570.088 246.12 570.888 243.96 572.488 242.36C574.248 240.6 576.488 239.72 579.208 239.72C581.928 239.72 584.168 240.6 585.928 242.36C587.688 243.96 588.568 246.12 588.568 248.84V361.64C588.568 364.52 587.688 366.84 585.928 368.6C584.168 370.2 581.928 371 579.208 371C576.488 371 574.248 370.2 572.488 368.6C570.888 366.84 570.088 364.52 570.088 361.64V353.48C564.808 359.4 558.408 364.04 550.888 367.4C543.368 370.76 535.208 372.44 526.408 372.44ZM627.909 371C625.029 371 622.709 370.2 620.949 368.6C619.349 366.84 618.549 364.52 618.549 361.64V249.08C618.549 246.2 619.349 243.96 620.949 242.36C622.709 240.6 625.029 239.72 627.909 239.72C630.629 239.72 632.789 240.6 634.389 242.36C636.149 243.96 637.029 246.2 637.029 249.08V361.64C637.029 364.52 636.149 366.84 634.389 368.6C632.789 370.2 630.629 371 627.909 371ZM627.669 214.76C624.149 214.76 621.109 213.48 618.549 210.92C615.989 208.36 614.709 205.24 614.709 201.56C614.709 197.56 615.989 194.44 618.549 192.2C621.269 189.8 624.389 188.6 627.909 188.6C631.269 188.6 634.229 189.8 636.789 192.2C639.509 194.44 640.869 197.56 640.869 201.56C640.869 205.24 639.589 208.36 637.029 210.92C634.469 213.48 631.349 214.76 627.669 214.76ZM726.604 372.2C713.644 372.2 702.124 369.4 692.044 363.8C682.124 358.04 674.284 350.12 668.524 340.04C662.924 329.96 660.124 318.44 660.124 305.48C660.124 292.36 662.764 280.84 668.044 270.92C673.484 260.84 680.924 252.92 690.364 247.16C699.804 241.4 710.684 238.52 723.004 238.52C735.164 238.52 745.724 241.32 754.684 246.92C763.804 252.36 770.844 259.96 775.804 269.72C780.764 279.48 783.244 290.6 783.244 303.08C783.244 305.64 782.444 307.72 780.844 309.32C779.244 310.76 777.164 311.48 774.604 311.48H677.644C678.604 320.12 681.244 327.8 685.564 334.52C689.884 341.08 695.564 346.28 702.604 350.12C709.644 353.8 717.644 355.64 726.604 355.64C732.364 355.64 738.124 354.68 743.884 352.76C749.804 350.68 754.524 348.12 758.044 345.08C759.804 343.64 761.804 342.92 764.044 342.92C766.284 342.76 768.204 343.32 769.804 344.6C771.884 346.52 772.924 348.6 772.924 350.84C773.084 353.08 772.204 355 770.284 356.6C765.004 361.08 758.284 364.84 750.124 367.88C741.964 370.76 734.124 372.2 726.604 372.2ZM723.004 255.08C710.684 255.08 700.524 258.92 692.524 266.6C684.524 274.12 679.724 283.96 678.124 296.12H765.964C764.684 283.96 760.204 274.12 752.524 266.6C745.004 258.92 735.164 255.08 723.004 255.08ZM848.866 371C840.386 371 832.786 369 826.066 365C819.506 361 814.306 355.56 810.466 348.68C806.626 341.64 804.706 333.64 804.706 324.68V260.6H789.106C786.706 260.6 784.706 259.88 783.106 258.44C781.506 256.84 780.706 254.92 780.706 252.68C780.706 250.28 781.506 248.36 783.106 246.92C784.706 245.32 786.706 244.52 789.106 244.52H804.706V207.32C804.706 204.6 805.506 202.36 807.106 200.6C808.866 198.84 811.106 197.96 813.826 197.96C816.546 197.96 818.786 198.84 820.546 200.6C822.306 202.36 823.186 204.6 823.186 207.32V244.52H850.306C852.706 244.52 854.706 245.32 856.306 246.92C857.906 248.36 858.706 250.28 858.706 252.68C858.706 254.92 857.906 256.84 856.306 258.44C854.706 259.88 852.706 260.6 850.306 260.6H823.186V324.68C823.186 332.84 825.586 339.56 830.386 344.84C835.186 349.96 841.346 352.52 848.866 352.52H855.346C857.906 352.52 859.986 353.4 861.586 355.16C863.186 356.92 863.986 359.16 863.986 361.88C863.986 364.6 863.026 366.84 861.106 368.6C859.186 370.2 856.786 371 853.906 371H848.866ZM905.389 371C895.789 371 887.869 367.16 881.629 359.48C875.389 351.64 872.269 341.64 872.269 329.48V192.68C872.269 189.96 873.069 187.8 874.669 186.2C876.429 184.44 878.669 183.56 881.389 183.56C884.109 183.56 886.269 184.44 887.869 186.2C889.629 187.8 890.509 189.96 890.509 192.68V329.48C890.509 336.36 891.869 341.96 894.589 346.28C897.469 350.6 901.069 352.76 905.389 352.76H911.389C913.789 352.76 915.709 353.64 917.149 355.4C918.589 357 919.309 359.16 919.309 361.88C919.309 364.6 918.269 366.84 916.189 368.6C914.269 370.2 911.709 371 908.509 371H905.389ZM950.363 428.12C949.083 428.12 947.643 427.8 946.043 427.16C940.603 424.76 939.083 420.92 941.483 415.64L965.483 363.08L965.243 362.84L911.723 251.96C910.603 249.56 910.443 247.32 911.243 245.24C912.043 243.16 913.643 241.56 916.043 240.44C921.323 238.04 925.163 239.4 927.563 244.52L974.363 343.16L1019 244.76C1021.4 239.64 1025.24 238.2 1030.52 240.44C1035.96 242.68 1037.48 246.44 1035.08 251.72L957.323 422.6C955.723 426.28 953.403 428.12 950.363 428.12Z" fill="white"/>
<path d="M427 424.52L427.707 423.813L427.69 423.796L427.673 423.78L427 424.52ZM424.36 347.24H425.36V344.076L423.542 346.665L424.36 347.24ZM403.48 365.48L403.94 366.368L403.947 366.364L403.953 366.361L403.48 365.48ZM341.32 363.56L340.801 364.415L340.812 364.421L341.32 363.56ZM318.04 339.56L317.166 340.046L317.172 340.056L318.04 339.56ZM318.28 271.16L317.418 270.654L317.412 270.664L318.28 271.16ZM342.28 247.4L342.776 248.268L342.786 248.262L342.28 247.4ZM409.96 247.16L409.458 248.025L409.464 248.028L409.96 247.16ZM433.72 270.92L432.852 271.416L432.856 271.424L432.861 271.432L433.72 270.92ZM443.08 304.52H444.08V304.507L444.08 304.494L443.08 304.52ZM440.44 424.52L439.767 423.78L439.75 423.796L439.733 423.813L440.44 424.52ZM401.08 348.92L400.574 348.058L400.566 348.063L401.08 348.92ZM418.36 331.16L417.488 330.67L417.485 330.676L418.36 331.16ZM418.36 279.8L417.485 280.284L417.489 280.291L417.493 280.298L418.36 279.8ZM401.08 262.04L400.552 262.889L400.563 262.896L400.574 262.902L401.08 262.04ZM351.64 262.04L352.146 262.902L352.153 262.898L352.16 262.894L351.64 262.04ZM334.12 279.8L333.253 279.302L333.253 279.302L334.12 279.8ZM334.12 331.16L333.248 331.65L333.253 331.658L334.12 331.16ZM351.64 348.92L352.146 348.058L352.146 348.058L351.64 348.92ZM433.72 426.16C431.238 426.16 429.261 425.367 427.707 423.813L426.293 425.227C428.259 427.193 430.762 428.16 433.72 428.16V426.16ZM427.673 423.78C426.164 422.409 425.36 420.463 425.36 417.8H423.36C423.36 420.897 424.316 423.431 426.327 425.26L427.673 423.78ZM425.36 417.8V347.24H423.36V417.8H425.36ZM423.542 346.665C418.357 354.049 411.519 360.028 403.007 364.599L403.953 366.361C412.721 361.652 419.803 355.471 425.178 347.815L423.542 346.665ZM403.02 364.592C394.536 368.991 385.016 371.2 374.44 371.2V373.2C385.304 373.2 395.144 370.929 403.94 366.368L403.02 364.592ZM374.44 371.2C362.283 371.2 351.421 368.36 341.828 362.699L340.812 364.421C350.739 370.28 361.957 373.2 374.44 373.2V371.2ZM341.839 362.705C332.226 356.875 324.586 348.999 318.908 339.064L317.172 340.056C323.014 350.281 330.894 358.405 340.801 364.415L341.839 362.705ZM318.914 339.074C313.404 329.157 310.64 317.967 310.64 305.48H308.64C308.64 318.273 311.476 329.803 317.166 340.046L318.914 339.074ZM310.64 305.48C310.64 292.836 313.483 281.57 319.148 271.656L317.412 270.664C311.557 280.91 308.64 292.524 308.64 305.48H310.64ZM319.142 271.666C324.975 261.736 332.849 253.941 342.776 248.268L341.784 246.532C331.551 252.379 323.425 260.424 317.418 270.654L319.142 271.666ZM342.786 248.262C352.7 242.44 363.883 239.52 376.36 239.52V237.52C363.557 237.52 352.02 240.52 341.774 246.538L342.786 248.262ZM376.36 239.52C388.68 239.52 399.704 242.361 409.458 248.025L410.462 246.295C400.376 240.439 389 237.52 376.36 237.52V239.52ZM409.464 248.028C419.389 253.7 427.18 261.491 432.852 271.416L434.588 270.424C428.74 260.189 420.691 252.14 410.456 246.292L409.464 248.028ZM432.861 271.432C438.686 281.193 441.764 292.223 442.08 304.546L444.08 304.494C443.756 291.857 440.594 280.487 434.579 270.408L432.861 271.432ZM442.08 304.52V417.8H444.08V304.52H442.08ZM442.08 417.8C442.08 420.463 441.276 422.409 439.767 423.78L441.113 425.26C443.124 423.431 444.08 420.897 444.08 417.8H442.08ZM439.733 423.813C438.179 425.367 436.202 426.16 433.72 426.16V428.16C436.678 428.16 439.181 427.193 441.147 425.227L439.733 423.813ZM376.36 356.4C385.802 356.4 394.223 354.2 401.595 349.777L400.566 348.063C393.537 352.28 385.478 354.4 376.36 354.4V356.4ZM401.586 349.782C409.102 345.371 414.989 339.32 419.235 331.644L417.485 330.676C413.411 338.04 407.778 343.829 400.574 348.058L401.586 349.782ZM419.232 331.65C423.642 323.81 425.84 315.079 425.84 305.48H423.84C423.84 314.761 421.718 323.15 417.488 330.67L419.232 331.65ZM425.84 305.48C425.84 295.724 423.643 286.989 419.227 279.302L417.493 280.298C421.717 287.651 423.84 296.036 423.84 305.48H425.84ZM419.235 279.316C414.989 271.64 409.102 265.589 401.586 261.178L400.574 262.902C407.778 267.131 413.411 272.92 417.485 280.284L419.235 279.316ZM401.608 261.191C394.235 256.603 385.808 254.32 376.36 254.32V256.32C385.472 256.32 393.525 258.517 400.552 262.889L401.608 261.191ZM376.36 254.32C367.068 254.32 358.646 256.605 351.12 261.186L352.16 262.894C359.354 258.515 367.412 256.32 376.36 256.32V254.32ZM351.134 261.178C343.621 265.587 337.658 271.634 333.253 279.302L334.987 280.298C339.222 272.926 344.939 267.133 352.146 262.902L351.134 261.178ZM333.253 279.302C328.837 286.989 326.64 295.724 326.64 305.48H328.64C328.64 296.036 330.763 287.651 334.987 280.298L333.253 279.302ZM326.64 305.48C326.64 315.079 328.838 323.81 333.248 331.65L334.992 330.67C330.762 323.15 328.64 314.761 328.64 305.48H326.64ZM333.253 331.658C337.658 339.326 343.621 345.373 351.134 349.782L352.146 348.058C344.939 343.827 339.222 338.034 334.987 330.662L333.253 331.658ZM351.134 349.782C358.658 354.199 367.075 356.4 376.36 356.4V354.4C367.405 354.4 359.342 352.281 352.146 348.058L351.134 349.782ZM495.928 365.48L495.455 366.362L495.468 366.368L495.928 365.48ZM474.568 344.6L473.695 345.09L473.702 345.101L474.568 344.6ZM469.528 242.36L470.235 243.067L470.235 243.067L469.528 242.36ZM482.728 242.36L482.02 243.067L482.02 243.067L482.728 242.36ZM549.448 350.36L549.018 349.457L549.01 349.461L549.448 350.36ZM564.568 337.88L563.747 337.308L563.747 337.308L564.568 337.88ZM572.488 242.36L573.195 243.067L573.195 243.067L572.488 242.36ZM585.928 242.36L585.22 243.067L585.237 243.084L585.255 243.1L585.928 242.36ZM585.928 368.6L586.6 369.34L586.618 369.324L586.635 369.307L585.928 368.6ZM572.488 368.6L571.748 369.273L571.78 369.308L571.815 369.34L572.488 368.6ZM570.088 353.48H571.088V350.856L569.341 352.814L570.088 353.48ZM550.888 367.4L550.48 366.487L550.48 366.487L550.888 367.4ZM526.408 371.44C515.187 371.44 505.188 369.15 496.387 364.592L495.468 366.368C504.587 371.09 514.908 373.44 526.408 373.44V371.44ZM496.4 364.599C487.61 359.89 480.623 353.064 475.433 344.099L473.702 345.101C479.072 354.376 486.325 361.47 495.455 366.361L496.4 364.599ZM475.439 344.11C470.422 335.173 467.888 324.231 467.888 311.24H465.888C465.888 324.489 468.473 335.787 473.696 345.09L475.439 344.11ZM467.888 311.24V248.84H465.888V311.24H467.888ZM467.888 248.84C467.888 246.537 468.668 244.634 470.235 243.067L468.82 241.653C466.867 243.606 465.888 246.023 465.888 248.84H467.888ZM470.235 243.067C471.801 241.501 473.704 240.72 476.008 240.72V238.72C473.191 238.72 470.774 239.699 468.82 241.653L470.235 243.067ZM476.008 240.72C478.489 240.72 480.466 241.513 482.02 243.067L483.435 241.653C481.469 239.687 478.966 238.72 476.008 238.72V240.72ZM482.02 243.067C483.587 244.634 484.368 246.537 484.368 248.84H486.368C486.368 246.023 485.388 243.606 483.435 241.653L482.02 243.067ZM484.368 248.84V311.24H486.368V248.84H484.368ZM484.368 311.24C484.368 326.141 488.502 337.42 496.946 344.87L498.269 343.37C490.393 336.42 486.368 325.779 486.368 311.24H484.368ZM496.946 344.87C505.313 352.252 515.798 355.92 528.328 355.92V353.92C516.217 353.92 506.222 350.388 498.269 343.37L496.946 344.87ZM528.328 355.92C536.299 355.92 543.492 354.374 549.885 351.259L549.01 349.461C542.923 352.426 536.036 353.92 528.328 353.92V355.92ZM549.877 351.263C556.417 348.156 561.599 343.888 565.388 338.452L563.747 337.308C560.176 342.431 555.278 346.484 549.018 349.457L549.877 351.263ZM565.388 338.452C569.19 332.996 571.088 326.795 571.088 319.88H569.088C569.088 326.405 567.305 332.204 563.747 337.308L565.388 338.452ZM571.088 319.88V248.84H569.088V319.88H571.088ZM571.088 248.84C571.088 246.328 571.819 244.443 573.195 243.067L571.78 241.653C569.956 243.477 569.088 245.912 569.088 248.84H571.088ZM573.195 243.067C574.749 241.513 576.726 240.72 579.208 240.72V238.72C576.249 238.72 573.746 239.687 571.78 241.653L573.195 243.067ZM579.208 240.72C581.689 240.72 583.666 241.513 585.22 243.067L586.635 241.653C584.669 239.687 582.166 238.72 579.208 238.72V240.72ZM585.255 243.1C586.775 244.482 587.568 246.357 587.568 248.84H589.568C589.568 245.883 588.6 243.438 586.6 241.62L585.255 243.1ZM587.568 248.84V361.64H589.568V248.84H587.568ZM587.568 361.64C587.568 364.3 586.763 366.35 585.22 367.893L586.635 369.307C588.612 367.33 589.568 364.74 589.568 361.64H587.568ZM585.255 367.86C583.705 369.269 581.717 370 579.208 370V372C582.138 372 584.63 371.131 586.6 369.34L585.255 367.86ZM579.208 370C576.698 370 574.71 369.269 573.16 367.86L571.815 369.34C573.785 371.131 576.277 372 579.208 372V370ZM573.227 367.927C571.829 366.389 571.088 364.326 571.088 361.64H569.088C569.088 364.714 569.946 367.291 571.748 369.273L573.227 367.927ZM571.088 361.64V353.48H569.088V361.64H571.088ZM569.341 352.814C564.159 358.625 557.876 363.182 550.48 366.487L551.295 368.313C558.939 364.898 565.456 360.175 570.834 354.146L569.341 352.814ZM550.48 366.487C543.097 369.786 535.077 371.44 526.408 371.44V373.44C535.338 373.44 543.638 371.734 551.295 368.313L550.48 366.487ZM620.949 368.6L620.209 369.273L620.241 369.308L620.277 369.34L620.949 368.6ZM620.949 242.36L621.656 243.067L621.656 243.067L620.949 242.36ZM634.389 242.36L633.649 243.033L633.681 243.068L633.717 243.1L634.389 242.36ZM634.389 368.6L633.682 367.893L633.682 367.893L634.389 368.6ZM618.549 210.92L619.256 210.213L619.256 210.213L618.549 210.92ZM618.549 192.2L619.208 192.953L619.211 192.95L618.549 192.2ZM636.789 192.2L636.105 192.93L636.129 192.951L636.154 192.972L636.789 192.2ZM637.029 210.92L636.322 210.213L636.322 210.213L637.029 210.92ZM627.909 370C625.223 370 623.161 369.259 621.622 367.86L620.277 369.34C622.258 371.141 624.836 372 627.909 372V370ZM621.689 367.927C620.29 366.389 619.549 364.326 619.549 361.64H617.549C617.549 364.714 618.408 367.291 620.209 369.273L621.689 367.927ZM619.549 361.64V249.08H617.549V361.64H619.549ZM619.549 249.08C619.549 246.389 620.292 244.432 621.656 243.067L620.242 241.653C618.407 243.488 617.549 246.011 617.549 249.08H619.549ZM621.656 243.067C623.199 241.524 625.249 240.72 627.909 240.72V238.72C624.809 238.72 622.219 239.676 620.242 241.653L621.656 243.067ZM627.909 240.72C630.392 240.72 632.267 241.512 633.649 243.033L635.129 241.687C633.312 239.688 630.867 238.72 627.909 238.72V240.72ZM633.717 243.1C635.225 244.471 636.029 246.417 636.029 249.08H638.029C638.029 245.983 637.074 243.449 635.062 241.62L633.717 243.1ZM636.029 249.08V361.64H638.029V249.08H636.029ZM636.029 361.64C636.029 364.3 635.225 366.35 633.682 367.893L635.096 369.307C637.074 367.33 638.029 364.74 638.029 361.64H636.029ZM633.682 367.893C632.307 369.268 630.421 370 627.909 370V372C630.837 372 633.272 371.132 635.096 369.307L633.682 367.893ZM627.669 213.76C624.423 213.76 621.635 212.591 619.256 210.213L617.842 211.627C620.584 214.369 623.876 215.76 627.669 215.76V213.76ZM619.256 210.213C616.887 207.844 615.709 204.98 615.709 201.56H613.709C613.709 205.5 615.091 208.876 617.842 211.627L619.256 210.213ZM615.709 201.56C615.709 197.793 616.904 194.969 619.208 192.953L617.891 191.447C615.075 193.911 613.709 197.327 613.709 201.56H615.709ZM619.211 192.95C621.754 190.706 624.641 189.6 627.909 189.6V187.6C624.138 187.6 620.784 188.894 617.888 191.45L619.211 192.95ZM627.909 189.6C631.003 189.6 633.722 190.695 636.105 192.93L637.473 191.47C634.737 188.905 631.536 187.6 627.909 187.6V189.6ZM636.154 192.972C638.61 194.995 639.869 197.813 639.869 201.56H641.869C641.869 197.307 640.409 193.885 637.425 191.428L636.154 192.972ZM639.869 201.56C639.869 204.98 638.691 207.844 636.322 210.213L637.736 211.627C640.487 208.876 641.869 205.5 641.869 201.56H639.869ZM636.322 210.213C633.953 212.582 631.089 213.76 627.669 213.76V215.76C631.61 215.76 634.986 214.378 637.736 211.627L636.322 210.213ZM692.044 363.8L691.542 364.665L691.55 364.67L691.559 364.674L692.044 363.8ZM668.524 340.04L667.65 340.526L667.656 340.536L668.524 340.04ZM668.044 270.92L667.164 270.445L667.162 270.45L668.044 270.92ZM754.684 246.92L754.154 247.768L754.163 247.773L754.172 247.779L754.684 246.92ZM775.804 269.72L776.696 269.267L776.696 269.267L775.804 269.72ZM780.844 309.32L781.513 310.063L781.533 310.046L781.551 310.027L780.844 309.32ZM677.644 311.48V310.48H676.527L676.65 311.59L677.644 311.48ZM685.564 334.52L684.723 335.061L684.729 335.07L685.564 334.52ZM702.604 350.12L702.126 350.998L702.133 351.002L702.141 351.006L702.604 350.12ZM743.884 352.76L744.201 353.709L744.208 353.706L744.216 353.703L743.884 352.76ZM758.044 345.08L757.411 344.306L757.401 344.314L757.391 344.323L758.044 345.08ZM764.044 342.92V343.92H764.08L764.116 343.917L764.044 342.92ZM769.804 344.6L770.483 343.865L770.457 343.841L770.429 343.819L769.804 344.6ZM772.924 350.84H771.924V350.876L771.927 350.911L772.924 350.84ZM770.284 356.6L769.644 355.832L769.637 355.837L770.284 356.6ZM750.124 367.88L750.457 368.823L750.465 368.82L750.473 368.817L750.124 367.88ZM692.524 266.6L693.209 267.329L693.217 267.321L692.524 266.6ZM678.124 296.12L677.133 295.99L676.984 297.12H678.124V296.12ZM765.964 296.12V297.12H767.075L766.959 296.015L765.964 296.12ZM752.524 266.6L751.81 267.3L751.817 267.307L751.825 267.315L752.524 266.6ZM726.604 371.2C713.793 371.2 702.444 368.433 692.53 362.926L691.559 364.674C701.805 370.367 713.496 373.2 726.604 373.2V371.2ZM692.547 362.935C682.781 357.265 675.066 349.473 669.393 339.544L667.656 340.536C673.502 350.767 681.468 358.815 691.542 364.665L692.547 362.935ZM669.399 339.554C663.891 329.641 661.124 318.291 661.124 305.48H659.124C659.124 318.589 661.958 330.279 667.65 340.526L669.399 339.554ZM661.124 305.48C661.124 292.496 663.736 281.143 668.927 271.39L667.162 270.45C661.793 280.537 659.124 292.224 659.124 305.48H661.124ZM668.924 271.395C674.283 261.465 681.602 253.678 690.885 248.014L689.844 246.306C680.247 252.162 672.685 260.215 667.164 270.445L668.924 271.395ZM690.885 248.014C700.151 242.36 710.847 239.52 723.004 239.52V237.52C710.522 237.52 699.458 240.44 689.844 246.306L690.885 248.014ZM723.004 239.52C735.006 239.52 745.376 242.282 754.154 247.768L755.214 246.072C746.073 240.358 735.323 237.52 723.004 237.52V239.52ZM754.172 247.779C763.125 253.119 770.036 260.576 774.913 270.173L776.696 269.267C771.653 259.344 764.484 251.601 755.197 246.061L754.172 247.779ZM774.913 270.173C779.792 279.774 782.244 290.735 782.244 303.08H784.244C784.244 290.465 781.737 279.186 776.696 269.267L774.913 270.173ZM782.244 303.08C782.244 305.413 781.524 307.226 780.137 308.613L781.551 310.027C783.364 308.214 784.244 305.867 784.244 303.08H782.244ZM780.175 308.577C778.793 309.821 776.967 310.48 774.604 310.48V312.48C777.362 312.48 779.696 311.699 781.513 310.063L780.175 308.577ZM774.604 310.48H677.644V312.48H774.604V310.48ZM676.65 311.59C677.626 320.37 680.313 328.2 684.723 335.061L686.406 333.979C682.176 327.4 679.583 319.87 678.638 311.37L676.65 311.59ZM684.729 335.07C689.141 341.77 694.945 347.081 702.126 350.998L703.083 349.242C696.184 345.479 690.627 340.39 686.4 333.97L684.729 335.07ZM702.141 351.006C709.342 354.77 717.504 356.64 726.604 356.64V354.64C717.785 354.64 709.947 352.83 703.068 349.234L702.141 351.006ZM726.604 356.64C732.478 356.64 738.344 355.661 744.201 353.709L743.568 351.811C737.905 353.699 732.251 354.64 726.604 354.64V356.64ZM744.216 353.703C750.215 351.596 755.056 348.982 758.698 345.837L757.391 344.323C753.992 347.258 749.393 349.764 743.553 351.817L744.216 353.703ZM758.678 345.854C760.262 344.558 762.039 343.92 764.044 343.92V341.92C761.57 341.92 759.347 342.722 757.411 344.306L758.678 345.854ZM764.116 343.917C766.131 343.774 767.796 344.274 769.18 345.381L770.429 343.819C768.613 342.366 766.438 341.746 763.973 341.923L764.116 343.917ZM769.126 345.335C771.059 347.119 771.924 348.949 771.924 350.84H773.924C773.924 348.251 772.71 345.921 770.483 343.865L769.126 345.335ZM771.927 350.911C772.061 352.79 771.349 354.411 769.644 355.832L770.925 357.368C773.059 355.589 774.108 353.37 773.922 350.769L771.927 350.911ZM769.637 355.837C764.465 360.226 757.853 363.933 749.775 366.943L750.473 368.817C758.715 365.747 765.543 361.934 770.931 357.363L769.637 355.837ZM749.792 366.937C741.723 369.785 733.995 371.2 726.604 371.2V373.2C734.253 373.2 742.206 371.735 750.457 368.823L749.792 366.937ZM723.004 254.08C710.457 254.08 700.039 257.999 691.832 265.879L693.217 267.321C701.009 259.841 710.911 256.08 723.004 256.08V254.08ZM691.839 265.871C683.652 273.568 678.759 283.629 677.133 295.99L679.116 296.25C680.689 284.291 685.397 274.672 693.209 267.329L691.839 265.871ZM678.124 297.12H765.964V295.12H678.124V297.12ZM766.959 296.015C765.658 283.658 761.093 273.59 753.224 265.885L751.825 267.315C759.316 274.65 763.711 284.262 764.97 296.225L766.959 296.015ZM753.239 265.9C745.505 258.002 735.395 254.08 723.004 254.08V256.08C734.934 256.08 744.503 259.838 751.81 267.3L753.239 265.9ZM826.066 365L825.546 365.854L825.555 365.859L826.066 365ZM810.466 348.68L809.588 349.159L809.593 349.167L810.466 348.68ZM804.706 260.6H805.706V259.6H804.706V260.6ZM783.106 258.44L782.399 259.147L782.418 259.166L782.437 259.183L783.106 258.44ZM783.106 246.92L783.775 247.663L783.795 247.646L783.813 247.627L783.106 246.92ZM804.706 244.52V245.52H805.706V244.52H804.706ZM807.106 200.6L806.399 199.893L806.382 199.91L806.366 199.927L807.106 200.6ZM820.546 200.6L819.839 201.307L819.839 201.307L820.546 200.6ZM823.186 244.52H822.186V245.52H823.186V244.52ZM856.306 246.92L855.599 247.627L855.618 247.646L855.637 247.663L856.306 246.92ZM856.306 258.44L856.975 259.183L856.995 259.166L857.013 259.147L856.306 258.44ZM823.186 260.6V259.6H822.186V260.6H823.186ZM830.386 344.84L829.646 345.513L829.651 345.518L829.657 345.524L830.386 344.84ZM861.586 355.16L862.326 354.487L862.326 354.487L861.586 355.16ZM861.106 368.6L861.746 369.368L861.765 369.353L861.782 369.337L861.106 368.6ZM848.866 370C840.551 370 833.13 368.041 826.578 364.141L825.555 365.859C832.442 369.959 840.222 372 848.866 372V370ZM826.587 364.146C820.178 360.238 815.098 354.926 811.339 348.193L809.593 349.167C813.515 356.194 818.835 361.762 825.546 365.854L826.587 364.146ZM811.344 348.201C807.593 341.325 805.706 333.493 805.706 324.68H803.706C803.706 333.787 805.659 341.955 809.588 349.159L811.344 348.201ZM805.706 324.68V260.6H803.706V324.68H805.706ZM804.706 259.6H789.106V261.6H804.706V259.6ZM789.106 259.6C786.923 259.6 785.17 258.952 783.775 257.697L782.437 259.183C784.242 260.808 786.49 261.6 789.106 261.6V259.6ZM783.813 257.733C782.399 256.318 781.706 254.652 781.706 252.68H779.706C779.706 255.188 780.614 257.362 782.399 259.147L783.813 257.733ZM781.706 252.68C781.706 250.527 782.411 248.891 783.775 247.663L782.437 246.177C780.601 247.829 779.706 250.033 779.706 252.68H781.706ZM783.813 247.627C785.214 246.227 786.954 245.52 789.106 245.52V243.52C786.459 243.52 784.199 244.413 782.399 246.213L783.813 247.627ZM789.106 245.52H804.706V243.52H789.106V245.52ZM805.706 244.52V207.32H803.706V244.52H805.706ZM805.706 207.32C805.706 204.811 806.438 202.822 807.846 201.273L806.366 199.927C804.575 201.898 803.706 204.389 803.706 207.32H805.706ZM807.813 201.307C809.367 199.753 811.344 198.96 813.826 198.96V196.96C810.868 196.96 808.365 197.927 806.399 199.893L807.813 201.307ZM813.826 198.96C816.308 198.96 818.285 199.753 819.839 201.307L821.253 199.893C819.287 197.927 816.784 196.96 813.826 196.96V198.96ZM819.839 201.307C821.393 202.861 822.186 204.838 822.186 207.32H824.186C824.186 204.362 823.219 201.859 821.253 199.893L819.839 201.307ZM822.186 207.32V244.52H824.186V207.32H822.186ZM823.186 245.52H850.306V243.52H823.186V245.52ZM850.306 245.52C852.459 245.52 854.199 246.227 855.599 247.627L857.013 246.213C855.214 244.413 852.954 243.52 850.306 243.52V245.52ZM855.637 247.663C857.001 248.891 857.706 250.527 857.706 252.68H859.706C859.706 250.033 858.811 247.829 856.975 246.177L855.637 247.663ZM857.706 252.68C857.706 254.652 857.014 256.318 855.599 257.733L857.013 259.147C858.799 257.362 859.706 255.188 859.706 252.68H857.706ZM855.637 257.697C854.242 258.952 852.49 259.6 850.306 259.6V261.6C852.923 261.6 855.17 260.808 856.975 259.183L855.637 257.697ZM850.306 259.6H823.186V261.6H850.306V259.6ZM822.186 260.6V324.68H824.186V260.6H822.186ZM822.186 324.68C822.186 333.051 824.655 340.022 829.646 345.513L831.126 344.167C826.518 339.098 824.186 332.629 824.186 324.68H822.186ZM829.657 345.524C834.66 350.861 841.092 353.52 848.866 353.52V351.52C841.601 351.52 835.712 349.059 831.116 344.156L829.657 345.524ZM848.866 353.52H855.346V351.52H848.866V353.52ZM855.346 353.52C857.649 353.52 859.451 354.298 860.846 355.833L862.326 354.487C860.521 352.502 858.164 351.52 855.346 351.52V353.52ZM860.846 355.833C862.255 357.382 862.986 359.371 862.986 361.88H864.986C864.986 358.949 864.118 356.458 862.326 354.487L860.846 355.833ZM862.986 361.88C862.986 364.334 862.134 366.302 860.431 367.863L861.782 369.337C863.919 367.378 864.986 364.866 864.986 361.88H862.986ZM860.466 367.832C858.753 369.26 856.59 370 853.906 370V372C856.983 372 859.62 371.14 861.746 369.368L860.466 367.832ZM853.906 370H848.866V372H853.906V370ZM881.629 359.48L880.846 360.103L880.853 360.111L881.629 359.48ZM874.669 186.2L873.962 185.493L873.962 185.493L874.669 186.2ZM887.869 186.2L887.129 186.873L887.161 186.908L887.196 186.94L887.869 186.2ZM894.589 346.28L893.743 346.813L893.749 346.824L893.757 346.835L894.589 346.28ZM917.149 355.4L916.375 356.033L916.39 356.051L916.405 356.069L917.149 355.4ZM916.189 368.6L916.829 369.368L916.835 369.363L916.189 368.6ZM905.389 370C896.1 370 888.462 366.304 882.405 358.849L880.853 360.111C887.276 368.016 895.477 372 905.389 372V370ZM882.411 358.857C876.34 351.23 873.269 341.464 873.269 329.48H871.269C871.269 341.816 874.437 352.05 880.846 360.103L882.411 358.857ZM873.269 329.48V192.68H871.269V329.48H873.269ZM873.269 192.68C873.269 190.168 874 188.283 875.376 186.907L873.962 185.493C872.137 187.317 871.269 189.752 871.269 192.68H873.269ZM875.376 186.907C876.93 185.353 878.907 184.56 881.389 184.56V182.56C878.431 182.56 875.928 183.527 873.962 185.493L875.376 186.907ZM881.389 184.56C883.872 184.56 885.746 185.352 887.129 186.873L888.609 185.527C886.791 183.528 884.346 182.56 881.389 182.56V184.56ZM887.196 186.94C888.717 188.322 889.509 190.197 889.509 192.68H891.509C891.509 189.723 890.541 187.278 888.541 185.46L887.196 186.94ZM889.509 192.68V329.48H891.509V192.68H889.509ZM889.509 329.48C889.509 336.485 890.893 342.287 893.743 346.813L895.435 345.747C892.845 341.633 891.509 336.235 891.509 329.48H889.509ZM893.757 346.835C896.779 351.368 900.664 353.76 905.389 353.76V351.76C901.474 351.76 898.158 349.832 895.421 345.725L893.757 346.835ZM905.389 353.76H911.389V351.76H905.389V353.76ZM911.389 353.76C913.508 353.76 915.136 354.52 916.375 356.033L917.923 354.767C916.281 352.76 914.07 351.76 911.389 351.76V353.76ZM916.405 356.069C917.64 357.441 918.309 359.34 918.309 361.88H920.309C920.309 358.98 919.537 356.559 917.892 354.731L916.405 356.069ZM918.309 361.88C918.309 364.305 917.399 366.266 915.543 367.837L916.835 369.363C919.139 367.414 920.309 364.895 920.309 361.88H918.309ZM915.549 367.832C913.854 369.244 911.542 370 908.509 370V372C911.876 372 914.684 371.156 916.829 369.368L915.549 367.832ZM908.509 370H905.389V372H908.509V370ZM946.043 427.16L945.639 428.075L945.655 428.082L945.672 428.088L946.043 427.16ZM941.483 415.64L940.573 415.225L940.573 415.226L941.483 415.64ZM965.483 363.08L966.393 363.495L966.681 362.864L966.19 362.373L965.483 363.08ZM965.243 362.84L964.343 363.275L964.416 363.427L964.536 363.547L965.243 362.84ZM911.723 251.96L910.817 252.383L910.823 252.395L911.723 251.96ZM911.243 245.24L910.31 244.881L910.31 244.881L911.243 245.24ZM916.043 240.44L915.629 239.53L915.62 239.534L916.043 240.44ZM927.563 244.52L926.658 244.944L926.66 244.949L927.563 244.52ZM974.363 343.16L973.46 343.589L974.383 345.536L975.274 343.573L974.363 343.16ZM1019 244.76L1018.1 244.336L1018.09 244.347L1019 244.76ZM1030.52 240.44L1030.13 241.361L1030.14 241.365L1030.52 240.44ZM1035.08 251.72L1035.99 252.134L1035.99 252.134L1035.08 251.72ZM957.323 422.6L956.413 422.186L956.409 422.194L956.406 422.201L957.323 422.6ZM950.363 427.12C949.246 427.12 947.935 426.84 946.415 426.232L945.672 428.088C947.351 428.76 948.92 429.12 950.363 429.12V427.12ZM946.447 426.245C943.861 425.104 942.381 423.698 941.753 422.112C941.128 420.532 941.26 418.549 942.393 416.054L940.573 415.226C939.307 418.011 938.999 420.588 939.893 422.848C940.786 425.102 942.785 426.816 945.639 428.075L946.447 426.245ZM942.393 416.055L966.393 363.495L964.573 362.665L940.573 415.225L942.393 416.055ZM966.19 362.373L965.95 362.133L964.536 363.547L964.776 363.787L966.19 362.373ZM966.144 362.405L912.624 251.525L910.823 252.395L964.343 363.275L966.144 362.405ZM912.629 251.537C911.601 249.333 911.492 247.378 912.176 245.599L910.31 244.881C909.394 247.262 909.605 249.787 910.817 252.383L912.629 251.537ZM912.176 245.599C912.866 243.805 914.253 242.379 916.466 241.346L915.62 239.534C913.033 240.741 911.22 242.515 910.31 244.881L912.176 245.599ZM916.457 241.35C918.961 240.212 920.96 240.04 922.549 240.603C924.132 241.163 925.526 242.531 926.658 244.944L928.469 244.096C927.2 241.389 925.474 239.517 923.217 238.717C920.966 237.92 918.405 238.268 915.629 239.53L916.457 241.35ZM926.66 244.949L973.46 343.589L975.267 342.731L928.467 244.091L926.66 244.949ZM975.274 343.573L1019.91 245.173L1018.09 244.347L973.452 342.747L975.274 343.573ZM1019.91 245.184C1021.04 242.77 1022.44 241.375 1024.03 240.776C1025.63 240.177 1027.63 240.301 1030.13 241.361L1030.91 239.519C1028.13 238.339 1025.57 238.063 1023.33 238.904C1021.09 239.745 1019.37 241.63 1018.1 244.336L1019.91 245.184ZM1030.14 241.365C1032.73 242.429 1034.19 243.778 1034.82 245.315C1035.44 246.848 1035.31 248.807 1034.17 251.306L1035.99 252.134C1037.26 249.353 1037.57 246.792 1036.67 244.565C1035.77 242.342 1033.76 240.691 1030.9 239.515L1030.14 241.365ZM1034.17 251.306L956.413 422.186L958.233 423.014L1035.99 252.134L1034.17 251.306ZM956.406 422.201C955.649 423.942 954.756 425.168 953.762 425.957C952.784 426.732 951.664 427.12 950.363 427.12V429.12C952.102 429.12 953.663 428.588 955.005 427.523C956.331 426.472 957.397 424.938 958.24 422.999L956.406 422.201Z" fill="white"/>
<defs>
<clipPath id="clip0">
<rect width="336" height="437" fill="white"/>
</clipPath>
</defs>
</svg>
