<svg width="2664" height="718" viewBox="0 0 2664 718" fill="none" xmlns="http://www.w3.org/2000/svg">
<path d="M987.995 443.89L984.811 436.64H1121.56L1113.42 444.378V388.259H1143.72V465.718H949.877V437.617L1098.83 265.107L1102.02 272.356H973.409L981.146 264.699V316.339H950.774V243.441H1136.47V271.541L987.91 444.052L987.995 443.89Z" fill="#F56A4D"/>
<path d="M1190.37 415.544C1181.01 397.626 1176.36 377.1 1176.36 354.213C1176.36 329.777 1180.93 308.682 1190.21 291.007C1199.41 273.333 1212.37 259.731 1229.14 250.283C1245.92 240.753 1265.31 236.029 1287.3 236.029C1307.82 236.029 1325.74 240.265 1340.97 248.735C1356.2 257.206 1368.09 269.423 1376.48 285.387C1384.95 301.351 1389.18 320.737 1389.18 343.38C1389.18 346.068 1389.02 349.326 1388.78 353.154C1388.45 356.901 1388.12 360.158 1387.88 362.928H1198.11V334.828H1363.85L1353.92 351.117V342.077C1353.92 327.904 1351.31 315.117 1346.02 303.795C1340.72 292.474 1333.15 283.596 1323.38 277.08C1313.52 270.563 1301.55 267.306 1287.37 267.306C1273.2 267.306 1259.69 270.727 1248.69 277.487C1237.69 284.247 1229.06 293.614 1222.87 305.587C1216.68 317.479 1213.58 331 1213.58 346.149V355.19C1213.58 371.806 1216.84 386.549 1223.36 399.336C1229.88 412.205 1239.49 422.305 1252.35 429.635C1265.15 437.048 1280.78 440.712 1299.19 440.712C1315.48 440.712 1329.24 438.024 1340.4 432.568C1351.56 427.11 1360.19 420.513 1366.22 412.612L1387.47 434.767C1379.01 445.599 1366.87 454.722 1350.99 461.971C1335.11 469.22 1316.94 472.804 1296.41 472.804C1270.77 472.804 1249.02 467.754 1231.18 457.654C1213.35 447.554 1199.75 433.544 1190.46 415.544H1190.37Z" fill="#F56A4D"/>
<path d="M1459.4 273.577H1426.33V243.278H1493.85V293.533L1491.16 284.491C1496.87 269.423 1506.88 257.531 1521.05 248.898C1535.22 240.265 1553.23 236.029 1574.96 236.029C1604.21 236.029 1626.36 243.685 1641.35 258.916C1656.25 274.148 1663.74 297.361 1663.74 328.393V435.255H1697.3V465.636H1585.48V435.255H1627.58V334.257C1627.58 311.94 1622.37 295.487 1611.95 284.899C1601.52 274.31 1586.2 269.016 1566.01 269.016C1543.36 269.016 1526.02 275.207 1513.96 287.586C1501.91 299.967 1495.88 317.805 1495.88 341.018V435.174H1537.99V465.555H1426.57V435.174H1459.64V273.496L1459.4 273.577Z" fill="#F56A4D"/>
<path d="M1926.65 337.026H1897.24V328.393C1897.24 310.882 1891.62 296.546 1880.46 285.387C1869.31 274.229 1853.92 268.609 1834.29 268.609C1818.57 268.609 1805.29 272.193 1794.46 279.442C1783.62 286.691 1775.32 296.628 1769.54 309.333C1763.76 322.04 1760.9 336.538 1760.9 352.828C1760.9 370.014 1764.24 385.164 1770.84 398.114C1777.44 411.064 1786.97 421.327 1799.34 428.658C1811.73 436.07 1826.22 439.735 1842.84 439.735C1859.45 439.735 1872.89 436.722 1883.16 430.694C1893.41 424.667 1901.56 417.744 1907.58 409.843L1929.74 431.101C1921.27 443.156 1909.22 453.174 1893.5 460.994C1877.78 468.812 1860.02 472.804 1840.07 472.804C1815.87 472.804 1795.2 467.836 1777.77 457.899C1760.41 447.961 1747.06 433.952 1737.69 416.033C1728.32 398.114 1723.68 377.345 1723.68 353.806C1723.68 330.267 1727.84 310.556 1736.14 292.881C1744.45 275.207 1756.34 261.36 1771.9 251.178C1787.46 241.079 1805.62 236.029 1826.46 236.029C1841.86 236.029 1855.14 238.635 1866.29 243.767C1877.45 248.898 1886.33 255.577 1893.01 263.721C1899.69 271.867 1903.43 280.012 1904.33 288.157L1898.47 287.26V243.36H1926.56V337.109L1926.65 337.026Z" fill="#F56A4D"/>
<path d="M2200.23 435.255H2233.29V465.636H2165.37V410.413L2169.92 414.485C2163.01 432.894 2151.77 447.228 2136.21 457.491C2120.65 467.753 2101.68 472.885 2079.36 472.885C2057.04 472.885 2038.89 468.079 2022.27 458.387C2005.65 448.694 1992.62 434.929 1983.09 416.929C1973.56 398.928 1968.84 378.077 1968.84 354.213C1968.84 330.348 1973.49 310.066 1982.85 292.392C1992.21 274.717 2005.25 260.952 2022.02 250.934C2038.8 240.998 2058.03 236.029 2079.76 236.029C2101.51 236.029 2119.35 240.753 2134.34 250.038C2149.24 259.405 2160.23 272.355 2167.15 288.971L2163.98 298.501V243.278H2233.29V273.577H2200.23V435.255ZM2128.47 428.902C2140.36 421.653 2149.56 411.635 2156.08 398.766C2162.6 385.897 2165.85 371.073 2165.85 354.131C2165.85 337.19 2162.6 322.366 2156.08 309.497C2149.56 296.628 2140.36 286.691 2128.47 279.604C2116.58 272.518 2102.41 268.934 2086.12 268.934C2069.83 268.934 2055.66 272.518 2043.77 279.604C2031.88 286.691 2022.59 296.628 2015.91 309.497C2009.23 322.366 2005.97 337.19 2005.97 354.131C2005.97 371.073 2009.32 385.897 2015.91 398.766C2022.51 411.635 2031.88 421.653 2044.02 428.902C2056.07 436.151 2070.15 439.735 2086.12 439.735C2102.09 439.735 2116.5 436.151 2128.47 428.902Z" fill="#F56A4D"/>
<path d="M2273.52 388.665H2302.91V392.25C2302.91 407.643 2309.19 420.105 2321.73 429.635C2334.28 439.165 2351.22 443.889 2372.63 443.889C2388.6 443.889 2401.3 441.201 2410.67 435.744C2420.04 430.287 2424.67 421.898 2424.67 410.412C2424.67 398.928 2420.28 389.969 2411.56 384.349C2402.77 378.729 2387.38 374.168 2365.39 370.502L2345.93 367.326C2319.94 362.52 2301.45 354.457 2290.45 343.135C2279.46 331.814 2273.92 317.56 2273.92 300.374C2273.92 280.419 2281.5 264.78 2296.57 253.296C2311.63 241.812 2331.02 236.11 2354.55 236.11C2371.17 236.11 2385.51 238.961 2397.56 244.743C2409.61 250.527 2418.65 258.509 2424.76 268.772L2422.48 276.916V243.441H2450.98V319.107H2422.48V314.139C2422.48 299.07 2417.11 287.017 2406.43 278.138C2395.68 269.26 2380.7 264.78 2361.4 264.78C2346.57 264.78 2334.35 267.713 2324.75 273.577C2315.05 279.442 2310.24 288.157 2310.24 299.641C2310.24 306.564 2311.95 312.51 2315.46 317.315C2318.96 322.121 2324.75 326.113 2332.89 329.289C2341.03 332.465 2352.03 335.235 2365.95 337.678L2391.29 341.751C2416.37 345.986 2434.21 353.642 2444.96 364.638C2455.71 375.634 2461.01 390.376 2461.01 408.784C2461.01 429.635 2453.68 445.518 2439.01 456.595C2424.35 467.591 2404.65 473.13 2379.89 473.13C2367.5 473.13 2355.85 471.582 2345.03 468.569C2334.19 465.555 2324.75 460.911 2316.76 454.721C2308.78 448.532 2302.68 441.038 2298.44 432.323L2302.51 420.105V465.88H2273.52V388.91V388.665Z" fill="#F56A4D"/>
<path d="M2494.56 243.278H2639.95V273.577H2494.56V243.278ZM2569.25 371.399V389.97C2569.25 421.653 2583.1 437.536 2610.95 437.536C2617.55 437.536 2623.9 436.396 2629.93 434.115C2635.95 431.835 2640.92 429.228 2644.83 426.214L2657.54 452.522C2651.83 457.654 2644.51 461.808 2635.55 464.984C2626.67 468.162 2616.74 469.709 2605.9 469.709C2582.61 469.709 2564.7 463.193 2551.99 450.242C2539.28 437.291 2533.01 417.906 2533.01 392.25V184.879L2569.25 175.837V371.48V371.399Z" fill="#F56A4D"/>
<path d="M583.285 581.785C583.774 578.69 578.316 578.119 572.208 578.526C572.208 578.526 557.141 578.934 559.096 581.785C561.051 584.635 582.715 584.88 583.285 581.785Z" fill="#F56A4D"/>
<path d="M541.508 582.68C552.096 578.282 567.652 575.35 573.679 573.884C579.706 572.418 557.635 566.309 536.459 568.019C505.836 570.463 496.225 571.603 496.225 578.608C496.225 585.613 530.921 587.079 541.508 582.68Z" fill="#F56A4D"/>
<path d="M480.095 567.776C470.566 572.337 432.857 571.196 416.731 571.522C392.542 571.93 406.143 578.364 416.731 581.296C427.319 584.228 435.382 582.762 466.005 578.608C496.629 574.536 489.705 563.214 480.176 567.776H480.095Z" fill="#F56A4D"/>
<path d="M507.297 590.5C509.822 588.546 509.171 587.079 499.723 585.206C499.723 585.206 475.533 579.341 466.982 583.169C458.43 586.997 504.691 592.455 507.216 590.5H507.297Z" fill="#F56A4D"/>
<path d="M157.325 525.177C152.357 515.158 147.633 502.289 147.633 489.665C147.633 463.438 179.968 424.342 243.087 415.627C287.556 409.437 309.302 386.793 351.816 378.73C361.997 376.775 362.812 362.359 352.875 359.345C348.151 357.96 342.531 356.657 335.853 355.191C335.365 355.11 334.875 354.947 334.468 354.865C324.696 354.132 311.827 354.865 298.388 360.649C296.026 361.625 293.339 362.196 290.651 362.196C284.379 362.196 277.457 359.671 271.593 354.865C264.914 349.489 260.517 342.24 258.969 334.421C256.363 334.829 253.838 335.399 251.639 336.62C239.748 342.81 226.961 339.308 216.536 340.938C204.075 342.892 176.383 336.05 166.04 325.381C147.715 306.565 188.274 322.122 161.886 305.099C150.158 297.524 134.847 295.977 125.236 289.298C110.25 278.953 106.259 246.292 106.259 237.333C106.259 207.115 116.277 242.627 123.119 230.084C127.516 222.102 117.254 204.59 122.222 192.128C125.806 183.168 127.354 173.232 130.612 160.852C133.707 148.797 141.118 185.123 163.353 142.525C168.972 131.774 183.958 131.041 192.51 127.049C208.555 119.475 193.161 114.343 208.962 114.425C219.224 114.425 230.871 103.674 242.517 104.976C253.105 106.199 261.901 121.918 273.141 124.036C283.81 126.072 308.081 105.384 308.406 116.869C308.814 132.181 341.066 139.675 351.654 142.688C362.486 145.783 348.233 124.851 371.526 139.023C377.39 142.606 376.657 169.078 395.226 167.53C399.869 167.123 389.199 153.113 400.52 156.779C412.086 160.526 418.52 173.15 427.56 177.223C440.428 183.087 455.415 176.245 461.686 180.807C469.179 186.263 484.98 195.549 498.092 192.617C546.389 181.621 515.276 168.996 543.782 167.856C555.022 167.368 528.226 143.421 551.357 142.851C558.524 142.688 574.568 156.208 581.492 159.141C587.111 161.503 583.446 150.833 587.274 151.892C596.315 154.335 610.324 160.852 607.554 176.979C599.003 226.418 612.359 197.992 611.057 209.721C609.753 221.205 598.677 233.831 595.582 244.989C592.487 256.311 593.79 270.646 589.148 280.99C587.926 283.678 585.727 285.714 583.039 287.344C579.048 289.787 576.36 293.778 575.546 298.176C567.972 304.122 561.537 311.126 557.465 319.76C553.556 318.783 549.158 320.249 546.959 324.484C545.738 327.009 530.425 330.511 528.308 332.304C519.023 340.122 549.809 334.177 521.792 353.074C508.516 362.033 485.875 352.422 480.336 352.422C476.672 352.422 505.178 382.232 474.066 400.314C464.78 405.771 444.827 394.939 436.438 395.591C417.868 396.975 401.742 398.115 376.331 395.182C361.508 393.473 275.176 419.699 258.725 479.647C253.675 498.135 264.426 515.973 283.158 522.164C289.511 524.281 363.707 524.851 446.048 525.096C446.048 525.096 445.641 502.045 466.165 498.625C487.422 495.04 514.788 485.755 538 486.651C567.157 487.71 562.922 525.177 562.922 525.177H666.602C693.316 477.447 710.012 423.12 713.188 365.21C713.188 157.838 545.248 -9.21616 341.717 0.394942C161.56 8.94719 14.6335 158.327 4.29004 343.707C4.29004 409.763 21.4749 471.665 51.2838 525.177H157.488H157.325Z" fill="#F56A4D"/>
<path d="M576.604 631.551C561.537 631.958 545.33 632.04 529.122 631.551C470.318 629.596 444.257 622.836 407.036 622.836C369.816 622.836 272.326 630.33 241.051 629.189C203.423 627.723 166.528 626.338 132.892 625.116C150.24 639.859 168.891 652.972 188.763 664.213C209.287 662.013 252.29 657.696 264.181 659.081C269.312 659.651 314.84 659.081 339.437 658.266C391.072 656.393 440.51 652.32 462.174 648.33C483.839 644.42 527.33 646.945 553.148 649.063C561.211 643.605 569.03 637.822 576.604 631.714V631.551Z" fill="#F56A4D"/>
<path d="M61.9534 543.341C61.9534 543.341 61.9534 543.422 61.9534 543.503C65.7812 549.531 69.772 555.395 73.9257 561.096C128.739 563.458 233.151 567.694 276.073 567.694C327.464 567.694 428.049 557.268 519.349 555.314C565.203 554.336 608.776 557.675 642.901 561.585C646.322 556.861 649.661 552.056 652.838 547.25C653.652 545.947 654.548 544.725 655.362 543.422C655.362 543.422 655.362 543.34 655.362 543.259H61.709L61.9534 543.341Z" fill="#F56A4D"/>
<path d="M260.107 665.271C260.433 663.398 251.637 661.361 241.537 662.339C234.289 662.991 227.04 666.493 219.059 666.737C209.367 667.063 200.245 666.819 193.078 666.493C196.661 668.448 200.327 670.321 203.91 672.194C222.154 671.869 259.13 670.566 260.107 665.353V665.271Z" fill="#F56A4D"/>
<path d="M623.189 586.671C568.296 584.798 533.111 595.06 508.597 595.06C451.015 595.06 386.429 576.082 276.803 575.594C193.485 575.187 133.867 584.554 99.0908 592.21C105.199 598.97 111.633 605.568 118.23 611.84C178.5 608.663 241.375 606.056 262.632 607.686C307.264 611.107 405.65 614.69 439.776 613.142C501.429 610.455 555.998 611.35 597.616 613.142C606.575 604.753 615.127 595.875 623.189 586.508V586.671Z" fill="#F56A4D"/>
<path d="M388.876 368.712C389.69 372.947 393.355 376.042 397.509 376.287C404.269 376.694 411.437 377.427 419.174 378.567C456.556 383.943 450.693 356.82 428.703 339.308C428.703 339.308 420.966 334.991 416.241 333.525C415.427 333.281 414.531 332.955 413.635 332.629C412.984 337.434 411.436 341.671 408.586 344.847C405.653 348.105 400.034 351.526 390.423 349.001C385.129 347.616 379.509 347.616 374.053 348.268C381.383 352.829 386.921 359.263 388.794 368.712H388.876Z" fill="#F56A4D"/>
<path d="M130.445 574.698C124.418 575.187 83.6951 582.192 107.884 582.762C131.992 583.332 153.412 580.319 149.584 576.491C145.675 572.744 141.359 573.884 130.526 574.698H130.445Z" fill="#F56A4D"/>
<path d="M545.898 653.624C531.482 652.972 507.048 649.877 488.967 650.447C473.249 650.854 463.475 655.986 463.475 657.696C463.475 660.954 490.596 658.999 498.822 664.375C511.772 672.846 452.154 656.637 351.733 666.004C315.164 669.424 301.237 663.968 284.621 666.004C271.02 667.633 256.93 673.497 244.469 674.068C235.836 674.475 224.027 677.082 217.674 678.71C265.726 700.295 319.318 711.29 375.759 708.603C437.902 705.67 496.053 685.878 545.979 653.705L545.898 653.624Z" fill="#F56A4D"/>
<path d="M286.747 331.978C282.186 333.769 276.811 333.851 271.272 333.851C272.576 338.005 275.182 341.915 278.928 344.928C283.896 348.919 289.842 350.549 293.507 349.001C296.846 347.535 300.185 346.476 303.444 345.498C298.557 342.648 295.788 339.146 295.136 335.643C294.077 330.348 288.947 331.081 286.747 331.978Z" fill="#F56A4D"/>
<path d="M368.593 325.381C355.562 321.715 342.368 317.968 334.305 319.027C316.957 321.389 318.423 331.652 322.413 332.792C329.988 334.91 331.373 334.829 339.599 336.62C344.241 337.598 349.209 338.738 354.015 340.041C364.358 336.539 379.507 333.118 393.516 336.784C396.61 337.598 398.727 337.435 399.786 336.213C401.09 334.747 401.741 331.815 401.904 328.231C392.457 324.647 382.113 320.493 375.434 318.294C364.032 314.547 378.529 328.068 368.593 325.298V325.381Z" fill="#F56A4D"/>
<path d="M213.199 617.052C205.298 611.514 197.154 616.238 174.105 614.854C158.63 613.876 145.111 616.808 151.382 619.658C157.653 622.51 221.018 622.672 213.117 617.134L213.199 617.052Z" fill="#F56A4D"/>
<path d="M347.506 617.378C350.682 613.143 262.721 611.514 262.721 611.514C235.926 610.781 233.401 607.279 225.257 612.818C217.112 618.356 242.279 622.265 252.704 623.814C263.128 625.361 344.41 621.533 347.587 617.297L347.506 617.378Z" fill="#F56A4D"/>
</svg>
