<svg width="517" height="531" viewBox="0 0 517 531" fill="none" xmlns="http://www.w3.org/2000/svg">
<path d="M500.856 412.746L480.085 433.517C485.865 445.375 488.935 458.478 488.935 472.057V522.465C488.935 527.177 485.114 530.998 480.402 530.998C475.689 530.998 471.868 527.177 471.868 522.465V472.057C471.868 434.708 443.154 404.256 406.706 401.303L408.857 407.498C409.357 409.498 408.357 410.498 408.357 410.498C408.357 410.498 400.5 417 397 411.5L389.386 399.789C375.501 396.746 363.397 388.242 355.782 375.74C353.33 371.715 354.606 366.465 358.63 364.013C362.654 361.56 367.905 362.836 370.357 366.861C376.564 377.051 387.175 383.326 399.002 383.922C400.061 383.745 401.166 383.768 402.27 384.016C428.913 384.433 454.015 396.649 470.855 418.611L488.788 400.678C495.751 393.715 496.401 382.635 490.298 374.906C476.767 357.777 480.207 337.055 493.18 324.823C500.467 317.953 501.291 306.433 495.057 298.597L482.773 283.155C475.378 273.858 472.969 261.505 476.331 250.109L484.273 223.198C487.102 213.607 482.259 203.515 473.007 199.725L462.526 195.43C448.762 189.79 439.869 176.539 439.869 161.669V134.204C439.869 80.0888 395.846 36.0666 341.736 36.0666H290.536C236.425 36.0666 192.403 80.0909 192.403 134.204V161.669C192.403 176.539 183.51 189.79 169.747 195.43L159.265 199.725C150.013 203.515 145.17 213.607 147.999 223.198L155.94 250.109C159.302 261.505 156.895 273.858 149.499 283.155L137.215 298.597C130.981 306.433 131.806 317.952 139.091 324.823C152.087 337.075 155.489 357.793 141.971 374.908C135.87 382.636 136.519 393.715 143.483 400.678L161.415 418.611C177.925 397.081 203.236 383.982 231.411 383.982C251.105 383.982 267.068 368.113 267.068 348.418V346.176C231.797 329.382 208.209 296.11 203.075 258.841C202.432 254.172 205.696 249.866 210.363 249.223C215.03 248.579 219.338 251.844 219.981 256.512C226.553 304.221 267.89 340.199 316.135 340.199C369.658 340.199 413.201 296.655 413.201 243.132V190.528C393.251 183.297 375.85 169.389 364.482 149.948C323.331 197.756 264.573 225.568 202.343 228.058C197.644 228.248 193.665 224.59 193.476 219.873C193.287 215.163 196.952 211.193 201.662 211.006C263.113 208.548 321.014 179.449 359.484 129.023C363.503 123.753 371.756 124.893 374.199 131.051C383.157 153.618 401.969 169.844 424.067 176.124C427.318 177.035 429.955 179.967 430.236 183.684C430.289 184.384 430.276 243.663 430.264 244.026C429.682 319.226 357.069 374.089 283.956 352.615C282.846 366.753 278.723 376.544 267 385.961L265 387L271.5 395C275 401 274.353 405.5 274.5 409C274.668 413 274.668 411 274.668 413V416.516V416.398C274.668 421.11 270.847 424.931 266.135 424.931C261.422 424.931 257.601 421.11 257.601 416.398V412V407.517L248.013 398.385C238.758 401.438 230.6 401.05 231.413 401.05C192.166 401.049 160.402 432.807 160.402 472.058V522.465C160.402 527.177 156.581 530.998 151.869 530.998C147.156 530.998 143.335 527.177 143.335 522.465V472.057C143.335 458.478 146.405 445.375 152.185 433.517L131.414 412.746C119.26 400.591 116.05 380.189 129.303 363.408C135.587 355.449 134.762 344.198 127.381 337.24C113.694 324.334 112.146 302.694 123.857 287.972L136.141 272.529C140.078 267.58 141.359 261.004 139.569 254.938L131.628 228.026C126.311 210.009 135.41 191.053 152.791 183.931L163.273 179.636C170.599 176.635 175.333 169.581 175.333 161.668V134.203C175.337 70.6808 227.016 19 290.537 19H341.737C405.257 19 456.936 70.6787 456.936 134.2V161.669C456.936 169.582 461.67 176.636 468.997 179.638L479.478 183.932C496.86 191.054 505.959 210.01 500.643 228.027L492.701 254.939C490.912 261.005 492.193 267.581 496.13 272.53L508.413 287.972C520.124 302.694 518.575 324.335 504.889 337.24C497.509 344.198 496.683 355.449 502.968 363.41C516.002 379.908 513.24 400.363 500.856 412.746Z" fill="black"/>
<path d="M166.24 173C167.963 173 169.659 172.342 170.946 171.094C172.921 169.179 173.538 166.259 172.507 163.709L157.163 125.753C167.539 112.265 173 96.4424 173 79.7422C173 58.3284 163.926 38.23 147.449 23.1492C131.138 8.22122 109.493 0 86.5 0C63.5072 0 41.8616 8.22122 25.5513 23.1492C9.07405 38.23 0 58.3284 0 79.7422C0 95.0986 4.74397 110.009 13.719 122.862C15.8562 125.922 20.0687 126.67 23.129 124.534C26.1892 122.397 26.9373 118.184 24.8005 115.124C17.4176 104.552 13.5156 92.3168 13.5156 79.7422C13.5156 43.2247 46.2562 13.5156 86.5 13.5156C126.744 13.5156 159.484 43.2247 159.484 79.7422C159.484 94.5361 154.221 108.53 144.264 120.212C142.63 122.129 142.198 124.794 143.142 127.129L153.74 153.346L122.875 139.74C121.165 138.986 119.217 138.974 117.497 139.708C107.759 143.862 97.3307 145.969 86.5 145.969C74.0345 145.969 61.733 143.067 50.9248 137.578C47.5966 135.889 43.5294 137.216 41.8393 140.543C40.1495 143.871 41.4768 147.939 44.8043 149.629C57.4995 156.076 71.9177 159.484 86.5 159.484C98.1505 159.484 109.421 157.393 120.044 153.263L163.516 172.426C164.393 172.812 165.32 173 166.24 173ZM79.7422 109.814V73.3223C79.7422 69.5899 82.7677 66.5645 86.5 66.5645C90.2323 66.5645 93.2578 69.5899 93.2578 73.3223V109.814C93.2578 113.547 90.2323 116.572 86.5 116.572C82.7677 116.572 79.7422 113.547 79.7422 109.814ZM86.5 43.25C90.2323 43.25 93.2578 46.2755 93.2578 50.0078C93.2578 53.7402 90.2323 56.7656 86.5 56.7656C82.7677 56.7656 79.7422 53.7402 79.7422 50.0078C79.7422 46.2755 82.7677 43.25 86.5 43.25Z" fill="black"/>
<path d="M320 482.633C338.545 482.633 353.633 467.545 353.633 449C353.633 445.462 350.765 442.594 347.227 442.594C343.688 442.594 340.82 445.462 340.82 449C340.82 460.48 331.48 469.82 320 469.82C308.52 469.82 299.18 460.48 299.18 449V400.633C299.18 389.152 308.52 379.812 320 379.812C331.48 379.812 340.82 389.152 340.82 400.633V416.969C340.82 420.507 343.688 423.375 347.227 423.375C350.765 423.375 353.633 420.507 353.633 416.969V400.633C353.633 382.088 338.545 367 320 367C301.455 367 286.367 382.088 286.367 400.633V449C286.367 467.545 301.455 482.633 320 482.633Z" fill="black"/>
<path d="M379.258 449C379.258 445.462 376.39 442.594 372.852 442.594C369.313 442.594 366.445 445.462 366.445 449C366.445 474.61 345.61 495.446 320 495.446C294.39 495.446 273.555 474.61 273.555 449C273.555 445.462 270.687 442.594 267.148 442.594C263.61 442.594 260.742 445.462 260.742 449C260.742 479.511 283.92 504.71 313.594 507.914V518.188H294.695C291.157 518.188 288.289 521.056 288.289 524.594C288.289 528.132 291.157 531 294.695 531H345.945C349.483 531 352.352 528.132 352.352 524.594C352.352 521.056 349.483 518.188 345.945 518.188H326.406V507.914C356.08 504.71 379.258 479.511 379.258 449Z" fill="black"/>
</svg>
